<svg version="1.1" xmlns="http://www.w3.org/2000/svg" viewBox="0 0 1064 837" width="1064" height="837">
  <!-- svg-source:excalidraw -->
  
  <defs>
    <style class="style-fonts">
      @font-face {
        font-family: "Virgil";
        src: url("https://excalidraw.com/Virgil.woff2");
      }
      @font-face {
        font-family: "Cascadia";
        src: url("https://excalidraw.com/Cascadia.woff2");
      }
    </style>
    
  </defs>
  <rect x="0" y="0" width="1064" height="837" fill="#ffffff"></rect><g stroke-linecap="round"><g transform="translate(464.9915993757861 200.40341350250992) rotate(359.99532574352605 71.03152057210957 19.890629181291885)" fill-rule="evenodd"><path d="M0 0 C0 0, 0 0, 0 0 M0 0 C0 0, 0 0, 0 0 M0.46 11.56 C2.83 9.16, 7.03 3.9, 10.21 -0.61 M0.13 12.73 C2.7 9, 6.23 5.52, 10.67 -0.17 M-0.64 23.09 C5.76 19.04, 9.69 13.43, 22.3 -1.29 M0.87 24.58 C4.64 17.89, 10.66 12.18, 21.78 -0.77 M0 37.02 C10.58 24.9, 16.49 14.45, 31.68 -1.36 M0.31 36.33 C7.88 27.47, 16.14 18.81, 31.13 0.83 M4.79 43.74 C10.33 36.35, 18.5 24.67, 44.05 -1.29 M5.24 43.69 C19.23 27.63, 32.71 11.13, 41.56 -0.91 M13.83 42.51 C25.39 33.98, 31.79 25.19, 53.68 -0.15 M15.32 43.23 C27.91 30.55, 38.85 15.16, 53.28 0.27 M25.1 45.44 C34.8 32.68, 43.12 20.73, 64.84 -1.26 M25.04 42.79 C38.31 28.1, 51.52 14, 63.11 -0.88 M36.5 41.59 C43.21 33.55, 53.11 25.94, 73.29 -1.65 M35.43 43.95 C45.98 32.71, 55.91 20.75, 73.79 -0.39 M88.19 -16.09 C88.19 -16.09, 88.19 -16.09, 88.19 -16.09 M88.19 -16.09 C88.19 -16.09, 88.19 -16.09, 88.19 -16.09 M47.56 43.7 C65.39 25.28, 80.03 4.8, 94.69 -13.39 M46.35 44.24 C55.35 31.69, 65.11 20.52, 94.69 -11.1 M57.05 45.09 C72.66 28.29, 84.81 12.58, 102.92 -5.18 M57.97 43.66 C72.3 24.51, 89.25 6.12, 101.88 -7.55 M68.09 43.64 C81.23 27.15, 94.6 12.18, 108.28 -3.76 M67.7 42.81 C77.82 31.47, 89.37 20.47, 108.63 -2.99 M78.33 45.49 C89.94 27.05, 105.15 13.06, 114.44 2.66 M77.82 43.71 C87.31 34.34, 95.67 23.51, 115.82 2.03 M90.38 45.3 C96.48 35.44, 107.53 23.69, 120.92 7.89 M88.71 45.11 C99.3 31.67, 109.65 20.37, 121.07 7.44 M86.29 62.62 C99.26 43.29, 113.97 28, 127.16 11.23 M85.08 61.13 C94.4 49.9, 105.49 38.01, 128.59 11.43 M112.38 41.04 C118.63 34, 123.57 27.35, 134.14 16.53 M110.6 42.67 C119.51 34.73, 126.36 25.48, 134.51 15.66 M138.3 24.55 C138.9 23.27, 140.19 21.64, 140.93 20.37 M137.88 24.4 C138.79 23.13, 140.11 21.57, 141 20.72" stroke="#b2f2bb" stroke-width="1" fill="none"></path><path d="M1.65 2 C-1.43 11.81, 1.01 18.92, -0.7 41.86 M-0.31 -0.94 C-1.06 10.98, 0.04 23.36, -0.91 39.13 M-0.05 38.17 C21.34 41.36, 41.23 40.56, 85.24 38.57 M0.43 39.21 C28.76 38.66, 55.55 39.15, 84.47 39.83 M83.1 40.35 C84.93 46.52, 83.87 53.49, 82.93 59.27 M83.9 40.58 C82.57 47.38, 82.47 52.89, 83.12 60.77 M85.11 61.47 C104 45.44, 120.82 32.27, 142.97 20.65 M82.94 60.37 C97.33 50.48, 111.01 42.2, 141.33 20.47 M142.19 18.62 C122.03 4.37, 101.81 -9.7, 82.95 -21.69 M142.02 19.9 C126.67 10.21, 114.5 -0.34, 83.52 -19.45 M81.55 -20.24 C85.44 -13.54, 84.88 -3.85, 81.61 1.09 M83.76 -20.38 C83.94 -12.65, 83.49 -5.02, 84.18 0.38 M83.57 -1.88 C58.68 2.08, 36.12 0.16, -0.32 1.5 M82.81 -0.3 C54.83 -0.97, 25.02 0.82, 0.42 -0.3 M0 0 C0 0, 0 0, 0 0 M0 0 C0 0, 0 0, 0 0" stroke="#2f9e44" stroke-width="2" fill="none"></path></g></g><mask></mask><g transform="translate(485.36068150312644 199.85332751812916) rotate(359.99532574352605 46.017935932144496 19.796603073094914)"><text x="0" y="0" font-family="Virgil, Segoe UI Emoji" font-size="31.67456491695186px" fill="#2f9e44" text-anchor="start" style="white-space: pre;" direction="ltr" dominant-baseline="text-before-edge">Trust</text></g><g stroke-linecap="round"><g transform="translate(379.60982811780127 413.97209013924316) rotate(410.3501814345288 70.83564685340082 20.214896300461106)" fill-rule="evenodd"><path d="M0 0 C0 0, 0 0, 0 0 M0 0 C0 0, 0 0, 0 0 M1.61 12.68 C2.29 8.01, 6.66 5.39, 11.39 0.73 M0.6 11.49 C2.39 8.33, 5.51 5.49, 10.9 0.08 M0.41 25.54 C4.62 19.67, 8.62 14.35, 20.24 0.3 M-0.49 23.31 C4.55 17.9, 10.51 11.96, 21.02 0.51 M-1.92 35.2 C6.46 30.79, 11.43 19.82, 32.42 1.21 M-0.57 37.37 C10.7 24.89, 20.18 13.84, 32.22 0.84 M2.73 45.06 C13.38 29.36, 25.04 20.44, 40.88 -0.92 M4.29 43.79 C16.36 29.83, 27.41 16.12, 42.41 0.09 M16.16 43.45 C27.38 25.9, 43.02 10.25, 52.12 1.82 M15.4 43.03 C26.99 32.24, 36.76 19.69, 52.92 0.68 M27.32 42.66 C31.49 36.28, 39.78 26.01, 64.9 -0.69 M25.01 44.45 C35.96 30.82, 45.97 18.92, 63.34 -0.38 M35.37 42.24 C47.56 28.06, 59.1 16.9, 72.77 0.94 M35.52 43.27 C46.48 31.7, 57.72 19.31, 74.24 -0.18 M88.19 -16.09 C88.19 -16.09, 88.19 -16.09, 88.19 -16.09 M88.19 -16.09 C88.19 -16.09, 88.19 -16.09, 88.19 -16.09 M48.42 43.47 C63.71 23.32, 80.49 5.32, 95.95 -10.77 M47.85 42.66 C57.94 30.8, 70.48 16.34, 94.41 -10.71 M58.18 43.55 C69.43 29.44, 83.37 16.39, 103.52 -6.62 M57.05 44.05 C68.46 31.05, 77.37 20.31, 101.4 -7.15 M70.06 43.9 C79.43 27.22, 92.94 13.02, 109.99 -3.98 M68.13 43.01 C82.33 27.92, 94.03 14.21, 108.07 -2.86 M77.4 45.21 C86.61 35.64, 93.42 27.23, 116.21 2.44 M77.28 43.45 C89.02 31.1, 102.05 17.42, 115.2 1.23 M90.74 44.89 C100.02 32.04, 110.97 19.76, 120.17 7.18 M89.41 45.1 C99 32.42, 108.92 22.95, 120.41 6.34 M85.35 60.47 C97.09 46.77, 111.26 28.76, 126.06 12.49 M83.87 60.72 C96.91 46.22, 110.88 31.1, 127.54 12.04 M111.07 43.75 C116.93 38.09, 122.02 32.5, 134.91 14.39 M110.56 42.02 C117.81 33.99, 126.47 26.8, 133.43 16.06 M137.8 24.44 C138.8 22.5, 140.14 21.2, 141.22 20.74 M137.76 24.57 C139.03 22.92, 139.86 21.85, 141.14 20.59" stroke="#b2f2bb" stroke-width="1" fill="none"></path><path d="M-1.86 1.7 C1.14 16.54, 1.11 29.67, -0.24 39.68 M0.89 -0.51 C0.54 14.83, 0.21 30.09, 0.08 39.75 M-0.68 39.62 C26.22 38.36, 57.66 39.03, 85.08 41.92 M0.49 40.17 C23.4 39.33, 47.19 38.93, 82.78 40.96 M81.73 41.93 C83.81 49.01, 84.6 55.17, 82.66 61.2 M83.83 40.3 C83.33 47, 84.01 52.34, 83.89 60.98 M83.26 59.36 C106.14 46.82, 126.97 28.9, 143.53 20.01 M82.81 60.04 C100.61 48.49, 117.25 37.34, 141.21 20.57 M143.28 20.06 C126.47 8.68, 107.09 -3.22, 81.95 -20.04 M142.06 20.33 C127.52 10.15, 112.29 -0.2, 83.33 -19.28 M84.45 -20.77 C85.09 -11.86, 85.13 -5.49, 82.65 -0.88 M82.96 -19.65 C83.71 -15.1, 84.17 -10.71, 82.97 -0.18 M83.85 0.59 C51.95 -0.63, 22.25 -2.41, -1.39 1.44 M83.05 0.68 C58.92 0.56, 32.38 0.45, -0.88 0.77 M0 0 C0 0, 0 0, 0 0 M0 0 C0 0, 0 0, 0 0" stroke="#2f9e44" stroke-width="2" fill="none"></path></g></g><mask></mask><g transform="translate(402.1560499220752 410.078835894288) rotate(410.3501814345288 46.017935932144496 19.7966030730949)"><text x="0" y="0" font-family="Virgil, Segoe UI Emoji" font-size="31.67456491695186px" fill="#2f9e44" text-anchor="start" style="white-space: pre;" direction="ltr" dominant-baseline="text-before-edge">Trust</text></g><g stroke-linecap="round"><g transform="translate(582.572985259307 399.51594020946686) rotate(673.3942685832993 70.38077019210016 20.77967701258879)" fill-rule="evenodd"><path d="M0 0 C0 0, 0 0, 0 0 M0 0 C0 0, 0 0, 0 0 M0.15 11 C2.82 7.78, 8.36 5.63, 9.13 0.43 M0.58 12.21 C3.67 8.59, 7.08 4.15, 10.98 -0.79 M0.83 23.65 C5.68 20.28, 9.28 14.6, 22.43 0.91 M0.57 23.67 C4.28 19.11, 9.77 14.94, 20.6 0.65 M1.56 36.66 C11.05 25.69, 22.36 8.77, 29.97 -1.3 M-1.16 36.36 C9.09 25.74, 19.84 12.99, 32.17 0.64 M3.01 44.4 C16.95 32.17, 26.79 16.81, 43.51 -1.81 M4.26 43.55 C11.4 34.64, 19.72 25.82, 43.3 0.19 M14.32 44.03 C25.95 31.07, 40.18 16.32, 51.44 1.65 M15.82 43.86 C22.06 35.18, 31.45 26.57, 53.75 -0.85 M26.36 42.23 C37.44 31.33, 44.26 21.62, 64.93 -1.17 M26.18 44.12 C39.65 26.89, 54.03 10.46, 64.29 -0.77 M34.68 42.37 C50.33 25.73, 65.57 10.91, 72.41 0.47 M36.93 44.23 C50.88 26.28, 65.2 9.36, 75.41 -0.71 M88.19 -16.09 C88.19 -16.09, 88.19 -16.09, 88.19 -16.09 M88.19 -16.09 C88.19 -16.09, 88.19 -16.09, 88.19 -16.09 M48.49 44.46 C58.56 30.64, 67.55 17.71, 95.58 -13.29 M46.69 42.63 C59.1 29.77, 70.8 13.78, 95.83 -11.35 M56.01 44.04 C69.39 30.48, 81.98 18.55, 101.81 -8.98 M57.18 43.35 C66.41 32.81, 76.19 22.9, 102.44 -7.61 M67.61 43.92 C78.08 34.15, 87.85 23.88, 106.39 -1.43 M67.26 43.4 C77.9 33.64, 86.39 22.59, 108.06 -2.14 M77.51 44.14 C91.64 31.09, 103.92 16.66, 113.59 3.52 M78.06 43.6 C88.28 32.21, 97.88 20.01, 115.16 2.32 M87.63 42.99 C95.93 35.65, 106.43 25.85, 119.26 6.78 M88.16 43.9 C97.71 33.53, 108.51 21.56, 121.77 6.43 M83.14 60.34 C93.93 48.8, 105.3 38.08, 128.02 10.45 M85.32 60.5 C100.77 43.95, 115.31 26.55, 126.9 12.47 M110.28 43.86 C116.26 35.47, 123.95 29.98, 135.74 15.91 M110.65 41.79 C119.5 33.49, 125.76 25.16, 135.35 16.11 M137.81 24.48 C138.89 23.19, 139.77 22.03, 141.5 21.02 M137.91 24.25 C138.82 23.48, 139.49 22.61, 141.07 20.62" stroke="#b2f2bb" stroke-width="1" fill="none"></path><path d="M-0.35 -0.15 C0.19 11.63, 1.25 27.83, -0.89 38.14 M0.19 -1 C0.06 10.19, -0.35 19.37, 0.98 39.66 M-0.75 41.27 C23.79 39.74, 45.76 39.5, 84.47 41.55 M-0.48 40.84 C32.41 40.94, 64.9 40.73, 83 40.73 M85.39 39.49 C81.96 48.08, 82.27 52.86, 82.42 61.64 M83.24 39.04 C84 46.66, 83.11 52.77, 82.94 59.53 M82.34 59.12 C99.82 48.88, 119.02 34.22, 140.87 20.28 M83.42 59.47 C98.71 49.08, 114.53 38.67, 141.55 19.78 M142.38 19.65 C126.01 9.05, 111.4 -0.65, 85.48 -20.08 M141.65 20.01 C128.31 11.12, 116.52 2.54, 83.08 -19.35 M83.54 -18.85 C81.88 -11.14, 83.61 -5.15, 82.85 1.01 M82.97 -19.97 C83.55 -14.83, 82.88 -8.98, 82.7 -0.01 M84.81 1.7 C53.37 0.36, 22.09 -0.88, -1.62 -0.64 M83.36 -0.44 C60.05 0.78, 38.38 0.82, 0.57 -0.62 M0 0 C0 0, 0 0, 0 0 M0 0 C0 0, 0 0, 0 0" stroke="#2f9e44" stroke-width="2" fill="none"></path></g></g><mask></mask><g transform="translate(602.3153848038266 402.89280620697014) rotate(673.3942685832993 46.017935932144496 19.7966030730949)"><text x="0" y="0" font-family="Virgil, Segoe UI Emoji" font-size="31.67456491695186px" fill="#2f9e44" text-anchor="start" style="white-space: pre;" direction="ltr" dominant-baseline="text-before-edge">Trust</text></g><g transform="translate(258.0000000000002 25) rotate(0 291.7708435058594 22.5)"><text x="291.7708435058594" y="0" font-family="Virgil, Segoe UI Emoji" font-size="36px" fill="#1e1e1e" text-anchor="middle" style="white-space: pre;" direction="ltr" dominant-baseline="text-before-edge">XRPL Validation Message Service</text></g><g stroke-linecap="round" transform="translate(43.99999999999966 102) rotate(0 201.99999999999994 131.5)"><path d="M32 0 M32 0 C141.12 0.51, 249.91 -0.54, 372 0 M32 0 C139.69 1.9, 247.08 1.04, 372 0 M372 0 C392.39 1.05, 402.99 9.66, 404 32 M372 0 C393.34 -1.86, 403.56 8.54, 404 32 M404 32 C403.65 96.1, 400.97 156.78, 404 231 M404 32 C404.32 103.82, 403.33 175.59, 404 231 M404 231 C405.74 252.05, 392.03 262.38, 372 263 M404 231 C402.39 251.31, 391.74 261.76, 372 263 M372 263 C280.37 264.37, 186.71 263.71, 32 263 M372 263 C247.88 261.41, 124.85 261.83, 32 263 M32 263 C11.23 261.44, 1.4 251.81, 0 231 M32 263 C11.73 264.79, -0.61 250.34, 0 231 M0 231 C0.18 177.11, -0.83 122.16, 0 32 M0 231 C1.5 151.79, 1.35 74.06, 0 32 M0 32 C0.34 12.27, 11.86 1.1, 32 0 M0 32 C1.01 8.92, 8.81 1.64, 32 0" stroke="#1e1e1e" stroke-width="2" fill="none"></path></g><g stroke-linecap="round" transform="translate(240.00000000000023 230) rotate(0 88.5 52)"><path d="M3.83 9.96 C3.83 9.96, 3.83 9.96, 3.83 9.96 M3.83 9.96 C3.83 9.96, 3.83 9.96, 3.83 9.96 M3.31 22.75 C4.96 18.81, 7.84 15.9, 15.77 8.41 M3.31 22.75 C6.57 18.77, 8.28 16.89, 15.77 8.41 M3.44 34.79 C10.86 23.94, 18.11 17.75, 30.34 3.85 M3.44 34.79 C10.62 25.59, 18.31 16.66, 30.34 3.85 M3.57 46.83 C14.36 35.81, 22.44 23.13, 40.97 3.81 M3.57 46.83 C16.62 31.09, 31.18 16.07, 40.97 3.81 M3.71 58.87 C19.33 41.37, 37.14 21.84, 51.6 3.78 M3.71 58.87 C14.41 47.06, 24.31 34.78, 51.6 3.78 M3.18 71.67 C18.32 56, 30.75 39.05, 62.23 3.75 M3.18 71.67 C25.99 46.06, 48.16 19.07, 62.23 3.75 M2.01 85.22 C16.3 67.95, 32.33 49.84, 72.86 3.71 M2.01 85.22 C27.79 55.81, 54.33 24.96, 72.86 3.71 M4.76 94.24 C28.61 65.86, 53.26 38.34, 83.49 3.68 M4.76 94.24 C20.17 75.23, 36.47 56.55, 83.49 3.68 M10.14 100.24 C27.24 80.53, 44.48 59.79, 94.12 3.64 M10.14 100.24 C31.92 74.43, 54.4 48.59, 94.12 3.64 M16.18 105.49 C50.32 68.29, 84.11 29.42, 104.75 3.61 M16.18 105.49 C51.68 66.96, 85.24 27.55, 104.75 3.61 M27.47 104.7 C57.62 69.49, 88.85 32.93, 115.38 3.57 M27.47 104.7 C47.88 78, 71.63 52.52, 115.38 3.57 M38.1 104.67 C60.91 81.07, 78.39 58, 126.01 3.54 M38.1 104.67 C56.17 83.45, 76.96 60.8, 126.01 3.54 M48.07 105.39 C75.6 72.27, 102.39 44.21, 136.64 3.5 M48.07 105.39 C67.72 82.91, 89.83 59.07, 136.64 3.5 M58.7 105.35 C80.96 81.33, 101.78 56.71, 147.27 3.47 M58.7 105.35 C79.41 82.27, 98.96 60.16, 147.27 3.47 M69.33 105.32 C99.01 72.12, 128.11 38.07, 156.59 4.94 M69.33 105.32 C94.23 76.73, 119.28 47.96, 156.59 4.94 M79.96 105.29 C114.33 68.59, 144.76 28.8, 167.87 4.15 M79.96 105.29 C103.54 77.34, 129.69 47.87, 167.87 4.15 M90.59 105.25 C118.98 72.29, 147.68 38.8, 173.26 10.16 M90.59 105.25 C116.52 73.17, 144.76 41.84, 173.26 10.16 M101.22 105.22 C119.03 86.22, 136.92 65.71, 179.29 15.41 M101.22 105.22 C121.59 79.03, 143.66 55.66, 179.29 15.41 M111.85 105.18 C127.1 86.57, 145.49 66.65, 182.05 24.43 M111.85 105.18 C126.53 86.55, 142.14 69.7, 182.05 24.43 M122.48 105.15 C145.64 76.28, 170.44 50.63, 182.18 36.47 M122.48 105.15 C139.88 84.92, 155.7 66.76, 182.18 36.47 M133.11 105.11 C146.54 88.7, 160.92 73.68, 182.32 48.51 M133.11 105.11 C143.35 93.06, 154.19 79.85, 182.32 48.51 M143.74 105.08 C154.26 92.57, 166.99 79.72, 182.45 60.55 M143.74 105.08 C157.75 90.93, 171.05 73.64, 182.45 60.55 M153.72 105.8 C158.54 99.01, 167.03 93, 177.34 78.63 M153.72 105.8 C161.41 95.98, 171.43 87.12, 177.34 78.63" stroke="#a5d8ff" stroke-width="1" fill="none"></path><path d="M26 0 M26 0 C73.9 -1.46, 123.11 1.03, 151 0 M26 0 C64.59 -1.38, 102.66 -0.67, 151 0 M151 0 C167.45 1.28, 175.07 6.83, 177 26 M151 0 C170.41 0.77, 176.83 8.88, 177 26 M177 26 C176.12 46.49, 175.92 66.01, 177 78 M177 26 C177.43 45.25, 177.11 61.99, 177 78 M177 78 C178.05 96.48, 166.64 104.44, 151 104 M177 78 C176.48 95.48, 167.13 103.64, 151 104 M151 104 C105.17 103.73, 59.71 104.68, 26 104 M151 104 C116.45 102.49, 83.01 102.85, 26 104 M26 104 C8.69 104.19, 0.21 95.58, 0 78 M26 104 C9.19 102.67, -0.99 95.36, 0 78 M0 78 C0.77 65.1, 0.89 47.39, 0 26 M0 78 C0.35 58.17, 0.62 38.56, 0 26 M0 26 C1.41 8.34, 8.12 -0.68, 26 0 M0 26 C1.19 9.23, 8.9 0.38, 26 0" stroke="#1e1e1e" stroke-width="2" fill="none"></path></g><g stroke-opacity="0" fill-opacity="0" stroke-linecap="round" transform="translate(38.6213384181641 210.22131400410183) rotate(0 83.87866158183562 83.87866158183564)"><path d="M106.68 2.32 C117.55 3.81, 128.87 11.18, 137.66 18.57 C146.45 25.97, 154.52 36.44, 159.4 46.67 C164.27 56.91, 166.5 68.55, 166.91 79.97 C167.31 91.4, 165.82 104.66, 161.81 115.21 C157.81 125.76, 150.83 135.47, 142.87 143.26 C134.9 151.04, 124.81 157.71, 114.01 161.92 C103.21 166.13, 89.39 169.13, 78.08 168.53 C66.78 167.92, 56.04 163.68, 46.17 158.27 C36.29 152.87, 25.96 145.12, 18.81 136.12 C11.67 127.11, 6.25 115.07, 3.29 104.24 C0.33 93.41, -0.65 82.11, 1.04 71.16 C2.72 60.21, 7.26 48.08, 13.42 38.54 C19.57 28.99, 28.36 20.08, 37.95 13.87 C47.53 7.67, 58.5 2.87, 70.91 1.31 C83.32 -0.24, 104.63 3.35, 112.42 4.54 C120.2 5.73, 118.09 6.94, 117.62 8.44 M121.74 9.56 C132.11 13.13, 142.27 22.63, 149.16 30.91 C156.05 39.2, 159.94 48.63, 163.11 59.27 C166.28 69.91, 169.36 83.49, 168.17 94.76 C166.98 106.02, 162.02 117.01, 155.97 126.86 C149.93 136.7, 141.33 147.29, 131.9 153.82 C122.46 160.34, 110.55 164.13, 99.34 165.99 C88.13 167.86, 75.74 167.76, 64.62 165.01 C53.5 162.26, 41.5 156.25, 32.64 149.49 C23.78 142.73, 17.07 134.5, 11.47 124.43 C5.87 114.37, -0.07 100.74, -0.97 89.11 C-1.88 77.48, 2.15 65.27, 6.03 54.67 C9.92 44.06, 14.57 33.34, 22.35 25.48 C30.13 17.62, 41.96 11.95, 52.73 7.5 C63.51 3.04, 75.54 -1.19, 87.02 -1.26 C98.5 -1.32, 116.15 5.28, 121.61 7.1 C127.08 8.92, 120.86 8, 119.8 9.64" stroke="none" stroke-width="0" fill="#ffc9c9"></path><path d="M94.58 0.33 C105.47 0.44, 119.02 6.07, 128.73 12.16 C138.43 18.25, 146.68 27.38, 152.83 36.85 C158.99 46.32, 163.73 57.75, 165.65 68.97 C167.57 80.19, 167.1 93.02, 164.38 104.18 C161.65 115.35, 156.03 126.94, 149.3 135.98 C142.56 145.03, 134.02 153.29, 123.99 158.46 C113.96 163.64, 100.47 166.3, 89.13 167.02 C77.8 167.74, 66.57 166.51, 55.96 162.77 C45.36 159.04, 33.86 152.6, 25.5 144.59 C17.13 136.59, 10.16 125.16, 5.78 114.73 C1.39 104.29, -1.2 93.33, -0.78 81.97 C-0.37 70.62, 3.23 57.09, 8.28 46.59 C13.33 36.1, 20.89 26.35, 29.53 19.02 C38.18 11.69, 48.69 5.59, 60.17 2.6 C71.64 -0.39, 91.27 0.83, 98.38 1.07 C105.49 1.32, 102.9 2.6, 102.82 4.08 M60.61 2.27 C70.51 -2.14, 83.4 -1.48, 94.79 0.36 C106.19 2.2, 119.11 7.39, 128.98 13.33 C138.84 19.27, 147.54 26.7, 153.98 36 C160.41 45.31, 165.59 57.56, 167.57 69.15 C169.56 80.75, 168.92 94.69, 165.9 105.57 C162.87 116.45, 156.65 125.73, 149.43 134.41 C142.22 143.09, 132.52 152.16, 122.6 157.64 C112.69 163.11, 101.23 166.63, 89.95 167.29 C78.68 167.95, 65.84 165.21, 54.95 161.58 C44.06 157.94, 32.92 153.08, 24.61 145.49 C16.31 137.91, 9.13 126.95, 5.12 116.07 C1.1 105.18, -0.09 91.51, 0.53 80.18 C1.14 68.84, 3.85 57.98, 8.83 48.06 C13.81 38.15, 21.56 28.01, 30.41 20.67 C39.25 13.33, 56.61 6.84, 61.89 4.01 C67.17 1.17, 62.07 2.27, 62.1 3.66" stroke="#1e1e1e" stroke-width="1" fill="none"></path></g><g transform="translate(76.4062499999992 320.93660547554776) rotate(0 46.09374999999994 17.5)"><text x="46.09375" y="0" font-family="Virgil, Segoe UI Emoji" font-size="28px" fill="#1e1e1e" text-anchor="middle" style="white-space: pre;" direction="ltr" dominant-baseline="text-before-edge">mongod</text></g><g stroke-linecap="round"><g transform="translate(86.70518103692962 257.7450125654793) rotate(0 30.394777337162395 15.538351198326325)" fill-rule="evenodd"><path d="M-0.51 -1.21 L-1.05 44.21 L6.53 52.18 L11.26 53.1 L23.89 57.9 L38.5 59.51 L49.95 51.04 L58.38 46.08 L61.48 38.87 L61.84 -15.08 L57.49 -17.9 L45.64 -23.57 L38.99 -27.35 L14.71 -23.47 L8.84 -21.27 L2.77 -15.95 L0.87 -1.52" stroke="none" stroke-width="0" fill="#ffc9c9" fill-rule="evenodd"></path><path d="M0.14 -0.98 C-0.01 5.8, -0.83 33.22, -0.56 41.29 C-0.29 49.37, -0.12 45.38, 1.75 47.45 C3.63 49.52, 7.28 52.04, 10.7 53.69 C14.11 55.33, 17.74 56.76, 22.26 57.32 C26.77 57.88, 32.96 57.67, 37.78 57.03 C42.6 56.39, 47.53 55.37, 51.18 53.49 C54.83 51.6, 58.18 47.99, 59.68 45.74 C61.19 43.49, 59.93 45.14, 60.23 40 C60.54 34.86, 61.22 23.06, 61.51 14.92 C61.8 6.77, 62.17 -3.43, 61.97 -8.87 C61.77 -14.31, 61.45 -15.45, 60.31 -17.73 C59.17 -20.02, 58.93 -21.02, 55.14 -22.57 C51.35 -24.12, 43.33 -26.28, 37.59 -27.02 C31.85 -27.76, 25.69 -27.6, 20.7 -27.02 C15.71 -26.44, 10.9 -25.33, 7.66 -23.52 C4.41 -21.7, 2.4 -18.56, 1.23 -16.12 C0.05 -13.69, 0.73 -11.5, 0.61 -8.92 C0.48 -6.35, 0.6 -2.28, 0.47 -0.66 M-1.24 1.11 C-1.63 7.5, -2.13 31.61, -1.81 39.5 C-1.49 47.39, -1.46 45.99, 0.67 48.45 C2.79 50.92, 7.61 52.84, 10.95 54.28 C14.28 55.73, 15.94 56.32, 20.66 57.13 C25.39 57.94, 34.04 59.93, 39.29 59.16 C44.55 58.39, 48.9 54.89, 52.19 52.52 C55.48 50.14, 57.42 47.18, 59.03 44.93 C60.65 42.68, 61.35 44.11, 61.89 39.01 C62.44 33.91, 62.2 22.18, 62.3 14.32 C62.39 6.46, 62.49 -3.24, 62.46 -8.13 C62.43 -13.02, 63.2 -12.46, 62.11 -15.02 C61.02 -17.58, 59.58 -21.42, 55.92 -23.49 C52.25 -25.55, 46.02 -26.68, 40.13 -27.41 C34.25 -28.13, 25.9 -28.66, 20.59 -27.86 C15.28 -27.06, 11.72 -24.16, 8.26 -22.61 C4.79 -21.06, 1.25 -20.94, -0.2 -18.55 C-1.65 -16.16, -0.37 -11.22, -0.44 -8.25 C-0.52 -5.29, -0.79 -2.03, -0.66 -0.76" stroke="#1e1e1e" stroke-width="1" fill="none"></path></g></g><mask></mask><g stroke-linecap="round"><g transform="translate(87.17694327210506 243.68145640773207) rotate(0 30.811525462989096 6.298698535516266)"><path d="M-0.56 0.63 C0.41 1.93, 2.26 5.01, 6 6.79 C9.74 8.57, 16.56 10.49, 21.86 11.3 C27.17 12.1, 32.71 12.25, 37.82 11.63 C42.94 11.01, 48.5 9.12, 52.56 7.56 C56.62 6.01, 60.58 3.44, 62.19 2.29 M1.34 -0.08 C2.7 1.45, 5.1 5.98, 8.39 8.01 C11.69 10.04, 16.17 11.42, 21.1 12.11 C26.03 12.8, 32.93 12.92, 37.95 12.15 C42.96 11.38, 47.46 9.22, 51.19 7.47 C54.92 5.71, 58.3 2.45, 60.31 1.62" stroke="#1e1e1e" stroke-width="1" fill="none"></path></g></g><mask></mask><g stroke-linecap="round"><g transform="translate(86.67204989950937 256.99096915884707) rotate(0 30.79737570178918 6.007078960798168)"><path d="M-0.61 -0.6 C0.59 0.36, 2.9 4.46, 6.61 6.42 C10.31 8.38, 16.35 10.26, 21.63 11.16 C26.9 12.05, 33.01 12.13, 38.25 11.81 C43.49 11.48, 49.07 11.06, 53.07 9.21 C57.06 7.35, 60.9 1.82, 62.2 0.68 M1.28 1.7 C2.36 2.73, 2.42 5.75, 5.66 7.45 C8.91 9.15, 15.25 11.06, 20.74 11.89 C26.23 12.72, 33.39 12.74, 38.6 12.43 C43.8 12.11, 48.34 11.57, 51.96 9.97 C55.58 8.37, 58.79 4.26, 60.33 2.83" stroke="#1e1e1e" stroke-width="1" fill="none"></path></g></g><mask></mask><g stroke-linecap="round"><g transform="translate(86.23983048778632 266.6337091929423) rotate(0 30.246248381866508 6.314424612949352)"><path d="M0 -0.97 C1.17 0.18, 2.7 4.23, 6.37 6.28 C10.05 8.33, 16.65 10.14, 22.05 11.34 C27.45 12.53, 33.58 14.08, 38.76 13.45 C43.93 12.83, 49.4 9.45, 53.08 7.6 C56.76 5.74, 59.46 3.38, 60.86 2.33 M-1.45 1.14 C-0.41 2.45, 1.5 5.4, 5.3 7.24 C9.11 9.07, 15.71 11.49, 21.39 12.17 C27.07 12.84, 34.27 12.05, 39.37 11.27 C44.47 10.5, 48.22 9.11, 51.98 7.52 C55.75 5.92, 60.25 2.97, 61.94 1.68" stroke="#1e1e1e" stroke-width="1" fill="none"></path></g></g><mask></mask><g stroke-linecap="round" transform="translate(153.00000000000023 120) rotate(0 80 31.5)"><path d="M2.34 6.01 C2.34 6.01, 2.34 6.01, 2.34 6.01 M2.34 6.01 C2.34 6.01, 2.34 6.01, 2.34 6.01 M4.44 15.79 C7 12.83, 12.38 5.25, 16.91 1.45 M4.44 15.79 C7.23 11.47, 10.97 8.86, 16.91 1.45 M4.57 27.83 C11.09 18.61, 21.22 9.4, 27.54 1.41 M4.57 27.83 C10.54 21.88, 16.03 14.47, 27.54 1.41 M4.71 39.87 C18.74 24.95, 27.84 10.65, 38.17 1.38 M4.71 39.87 C13.69 28.76, 22.25 19.94, 38.17 1.38 M3.53 53.42 C13.34 41.09, 26.48 28.61, 48.8 1.34 M3.53 53.42 C20.85 32.62, 36.81 14.31, 48.8 1.34 M6.94 61.68 C26.04 40.3, 46.56 16.17, 59.43 1.31 M6.94 61.68 C26.64 38.77, 45.21 17.47, 59.43 1.31 M13.64 66.18 C36.23 40.65, 54.9 18.55, 70.06 1.27 M13.64 66.18 C34.96 41.86, 55.67 16.59, 70.06 1.27 M24.27 66.14 C44.84 42.04, 67.14 16.65, 80.03 1.99 M24.27 66.14 C42.57 45.09, 62.14 24.49, 80.03 1.99 M34.9 66.11 C55.56 44.84, 75.06 19, 90.66 1.96 M34.9 66.11 C47.4 51.12, 59.92 37.92, 90.66 1.96 M45.53 66.08 C63.97 44.44, 82.2 24.73, 101.29 1.92 M45.53 66.08 C66.67 42.97, 85.21 20.4, 101.29 1.92 M55.5 66.8 C72.48 46.16, 91.81 22.58, 111.92 1.89 M55.5 66.8 C72.95 47.9, 88.53 28.75, 111.92 1.89 M66.13 66.76 C83.19 48.56, 99.87 26.03, 122.55 1.86 M66.13 66.76 C79.43 52.65, 89.67 39.42, 122.55 1.86 M76.76 66.73 C97.27 43.73, 116.5 17.36, 133.18 1.82 M76.76 66.73 C95.5 45.61, 113.87 25.08, 133.18 1.82 M87.39 66.69 C99.68 52.8, 113.39 37.63, 143.81 1.79 M87.39 66.69 C100.41 51.89, 115.05 35.45, 143.81 1.79 M98.02 66.66 C110.77 48.82, 125.06 35.05, 153.13 3.26 M98.02 66.66 C115.54 46.97, 131.7 29.84, 153.13 3.26 M108.65 66.62 C119.9 53.34, 132.7 41.32, 159.82 7.76 M108.65 66.62 C129.24 43.88, 148.31 20.07, 159.82 7.76 M119.28 66.59 C130.51 54.19, 139.68 43.98, 163.89 15.27 M119.28 66.59 C133.84 50.94, 148.2 32.85, 163.89 15.27 M129.25 67.31 C138.52 56.3, 144.5 49.9, 163.37 28.06 M129.25 67.31 C143.03 52.35, 157.11 36.19, 163.37 28.06 M139.88 67.27 C149.22 57.58, 156.5 48.74, 163.5 40.1 M139.88 67.27 C147.64 58.62, 155.84 47.75, 163.5 40.1 M4.15 59.25 C4.15 59.25, 4.15 59.25, 4.15 59.25 M4.15 59.25 C4.15 59.25, 4.15 59.25, 4.15 59.25 M13.17 56.49 C9.87 55.32, 8.18 50.56, 3.36 47.96 M13.17 56.49 C10.82 53.73, 7.76 52.54, 3.36 47.96 M25.97 57.01 C19.5 51.09, 11.2 42.55, 3.33 37.33 M25.97 57.01 C21.82 53.81, 17.57 49.27, 3.33 37.33 M38.01 56.88 C27.48 48.69, 17.84 37.16, 3.29 26.7 M38.01 56.88 C25.13 45.77, 11.96 35.14, 3.29 26.7 M50.05 56.75 C41.56 48.73, 31.55 42.34, 3.26 16.07 M50.05 56.75 C39.92 47.45, 29.41 39.47, 3.26 16.07 M62.84 57.27 C48.4 44.42, 29.03 31.11, 3.22 5.44 M62.84 57.27 C41.74 38.94, 20.13 20.19, 3.22 5.44 M74.88 57.14 C50.78 35.58, 26.58 15.59, 8.47 -0.6 M74.88 57.14 C55.63 40.42, 38.01 25.19, 8.47 -0.6 M86.93 57 C66.45 39.56, 44.37 20.28, 18.25 -2.7 M86.93 57 C67.29 39.92, 46.55 22, 18.25 -2.7 M99.72 57.52 C83.82 43.22, 65.24 29.34, 30.29 -2.83 M99.72 57.52 C82.84 43, 67.44 29.52, 30.29 -2.83 M111.76 57.39 C89.07 38.93, 67.78 21.28, 43.08 -2.31 M111.76 57.39 C95.24 40.91, 76.17 25.28, 43.08 -2.31 M123.8 57.26 C106.64 40.86, 88.5 27.49, 55.12 -2.44 M123.8 57.26 C99.31 36.29, 74.04 14.84, 55.12 -2.44 M136.6 57.78 C121.6 45.62, 108.38 32.4, 67.16 -2.58 M136.6 57.78 C117.78 41.1, 96.86 23.92, 67.16 -2.58 M148.64 57.65 C133.24 42.9, 117.81 30.29, 79.96 -2.05 M148.64 57.65 C129.25 38.83, 107.89 22.62, 79.96 -2.05 M158.42 55.55 C136.09 33.06, 109.58 13, 92 -2.19 M158.42 55.55 C145.53 43.98, 132.05 32.71, 92 -2.19 M163.66 49.51 C152.99 38.63, 138.81 27.15, 104.04 -2.32 M163.66 49.51 C147.54 36.08, 131.17 21.47, 104.04 -2.32 M163.63 38.88 C148.46 29.19, 138.66 17.66, 116.84 -1.8 M163.63 38.88 C151.69 29.42, 141.37 17.66, 116.84 -1.8 M163.6 28.25 C155.59 22.22, 145.41 12.35, 128.88 -1.93 M163.6 28.25 C153.17 18.65, 142.89 9.95, 128.88 -1.93 M163.56 17.62 C155.96 10.22, 149.36 2.08, 140.92 -2.06 M163.56 17.62 C157.69 13.08, 153.32 8.5, 140.92 -2.06" stroke="#ffec99" stroke-width="1" fill="none"></path><path d="M15.75 0 M15.75 0 C45.82 -0.64, 72.65 0.38, 144.25 0 M15.75 0 C64.64 -0.66, 114.12 0.03, 144.25 0 M144.25 0 C155.45 1.21, 161.91 6.43, 160 15.75 M144.25 0 C156.04 1.57, 158.85 5.81, 160 15.75 M160 15.75 C159.29 25.85, 158.54 30.4, 160 47.25 M160 15.75 C160.92 27.29, 160 37.86, 160 47.25 M160 47.25 C161 56.63, 153.22 61.59, 144.25 63 M160 47.25 C160.96 58.96, 152.99 63.11, 144.25 63 M144.25 63 C109.97 61.3, 77.86 62.4, 15.75 63 M144.25 63 C114.48 62.5, 83.69 61.89, 15.75 63 M15.75 63 C6.53 64.21, -0.48 59.35, 0 47.25 M15.75 63 C6.95 62.61, -1.52 58.67, 0 47.25 M0 47.25 C1.49 38.18, 1.11 33.12, 0 15.75 M0 47.25 C-0.34 36.06, 0.2 25.56, 0 15.75 M0 15.75 C-1.1 6.25, 7 -1.53, 15.75 0 M0 15.75 C1.74 3.42, 3.41 -1.98, 15.75 0" stroke="#1e1e1e" stroke-width="2" fill="none"></path></g><g transform="translate(58.99999999999966 107) rotate(0 35.0625 12.5)"><text x="0" y="0" font-family="Virgil, Segoe UI Emoji" font-size="20px" fill="#1e1e1e" text-anchor="start" style="white-space: pre;" direction="ltr" dominant-baseline="text-before-edge">NODE-1</text></g><g mask="url(#mask-PiL4PCpw-bagzfQocpgOq)" stroke-linecap="round"><g transform="translate(287.0000000000002 341) rotate(0 -0.9555524259806134 43.928845492005365)"><path d="M0.71 -0.9 C0.16 13.78, -2.18 73.98, -2.63 88.75 M-0.37 1.25 C-0.59 15.52, 0.15 72.42, -0.24 87.03" stroke="#1e1e1e" stroke-width="2" fill="none"></path></g><g transform="translate(287.0000000000002 341) rotate(0 -0.9555524259806134 43.928845492005365)"><path d="M-11.86 57.75 C-5.32 68.89, -3.39 79.51, -1.02 85.6 M-11.02 58.48 C-8.63 64.49, -6.42 70.52, -0.53 87.8" stroke="#1e1e1e" stroke-width="2" fill="none"></path></g><g transform="translate(287.0000000000002 341) rotate(0 -0.9555524259806134 43.928845492005365)"><path d="M8.66 57.84 C7.85 69.08, 2.42 79.66, -1.02 85.6 M9.5 58.57 C7.44 64.53, 5.19 70.54, -0.53 87.8" stroke="#1e1e1e" stroke-width="2" fill="none"></path></g></g><mask id="mask-PiL4PCpw-bagzfQocpgOq"><rect x="0" y="0" fill="#fff" width="389.0000000000002" height="529"></rect><rect x="263.9687500000002" y="375" fill="#000" width="44.0625" height="20" opacity="1"></rect></mask><g mask="url(#mask-WArBCGLX9yd-ieQsqtU15)" stroke-linecap="round"><g transform="translate(368.0000000000002 337) rotate(0 -1.7108395555904963 43.68326569273137)"><path d="M0.03 -0.27 C-0.31 14.19, -2.02 72.99, -2.67 87.53 M-1.42 -1.46 C-1.83 13.1, -3.45 73.95, -3.45 88.82" stroke="#1e1e1e" stroke-width="2" fill="none"></path></g><g transform="translate(368.0000000000002 337) rotate(0 -1.7108395555904963 43.68326569273137)"><path d="M-13.72 61.02 C-11.44 66.07, -9.89 76.27, -3.74 87.52 M-13.97 59.94 C-11.12 68.92, -7.81 76.25, -3.05 88.27" stroke="#1e1e1e" stroke-width="2" fill="none"></path></g><g transform="translate(368.0000000000002 337) rotate(0 -1.7108395555904963 43.68326569273137)"><path d="M6.8 61.34 C3.99 66.31, 0.46 76.43, -3.74 87.52 M6.55 60.25 C3.89 69.06, 1.67 76.3, -3.05 88.27" stroke="#1e1e1e" stroke-width="2" fill="none"></path></g></g><mask id="mask-WArBCGLX9yd-ieQsqtU15"><rect x="0" y="0" fill="#fff" width="471.0000000000002" height="525"></rect><rect x="346.697916030884" y="371" fill="#000" width="39.60416793823242" height="20" opacity="1"></rect></mask><g stroke-linecap="round"><g transform="translate(289.262448902806 184) rotate(0 0.05460528201092529 22.138556958581347)"><path d="M-0.86 -1 C-0.75 6.39, 0.97 36.39, 0.97 43.83 M0.89 1.09 C0.9 8.71, 0.45 38, 0.57 45.27" stroke="#1e1e1e" stroke-width="2" fill="none"></path></g><g transform="translate(289.262448902806 184) rotate(0 0.05460528201092529 22.138556958581347)"><path d="M-8.58 26.33 C-4.84 30.11, -2.72 36.78, -0.32 43.89 M-6.55 25.07 C-4.75 29.06, -3.4 35.34, 0.31 44.67" stroke="#1e1e1e" stroke-width="2" fill="none"></path></g><g transform="translate(289.262448902806 184) rotate(0 0.05460528201092529 22.138556958581347)"><path d="M6.46 26.35 C5.28 30.02, 2.48 36.68, -0.32 43.89 M8.5 25.1 C6.6 29.2, 4.24 35.47, 0.31 44.67" stroke="#1e1e1e" stroke-width="2" fill="none"></path></g></g><mask></mask><g stroke-linecap="round"><g transform="translate(238.00000000000023 279.98381856022286) rotate(0 -44.8689953237772 -1.2651833292742936)"><path d="M1.04 -0.17 C-13.94 -0.4, -75.47 -1.97, -90.78 -2.36 M0.13 -1.31 C-14.4 -1.28, -73.73 -0.99, -88.48 -1.02" stroke="#1e1e1e" stroke-width="2" fill="none"></path></g><g transform="translate(238.00000000000023 279.98381856022286) rotate(0 -44.8689953237772 -1.2651833292742936)"><path d="M-60.6 -12.63 C-67.45 -10.13, -74.16 -7.76, -89.56 -1.59 M-59.91 -11.88 C-71 -6.67, -81.78 -4.02, -89.15 -1.34" stroke="#1e1e1e" stroke-width="2" fill="none"></path></g><g transform="translate(238.00000000000023 279.98381856022286) rotate(0 -44.8689953237772 -1.2651833292742936)"><path d="M-60.56 7.89 C-67.25 5.7, -73.96 3.38, -89.56 -1.59 M-59.87 8.64 C-71.06 6.11, -81.85 1.02, -89.15 -1.34" stroke="#1e1e1e" stroke-width="2" fill="none"></path></g></g><mask></mask><g stroke-linecap="round" transform="translate(622.6893307909179 102.32131510116159) rotate(0 202 131.5)"><path d="M32 0 M32 0 C167.15 -1.97, 301.67 -0.45, 372 0 M32 0 C140.21 -1.07, 247.19 -1.89, 372 0 M372 0 C394.76 1.27, 403.32 11.74, 404 32 M372 0 C393.11 0.97, 405.43 9.14, 404 32 M404 32 C404.05 102.53, 403.16 175.71, 404 231 M404 32 C404.56 107.6, 403.11 184.99, 404 231 M404 231 C405.59 252.09, 394.17 262.65, 372 263 M404 231 C405.28 250.3, 393.16 265.02, 372 263 M372 263 C283.73 261.08, 194.32 261.92, 32 263 M372 263 C282.18 262.75, 192.56 262.55, 32 263 M32 263 C12.12 264.89, 1.64 254.02, 0 231 M32 263 C12.55 261.01, -1.75 254.14, 0 231 M0 231 C0.06 177.86, -0.3 122.54, 0 32 M0 231 C-0.02 163.3, 1.02 92.82, 0 32 M0 32 C-1.31 12.13, 9.51 -1.25, 32 0 M0 32 C-0.61 11.61, 12.58 0.89, 32 0" stroke="#1e1e1e" stroke-width="2" fill="none"></path></g><g stroke-linecap="round" transform="translate(818.6893307909179 230.3213151011616) rotate(0 88.5 51.99999999999997)"><path d="M3.83 9.96 C3.83 9.96, 3.83 9.96, 3.83 9.96 M3.83 9.96 C3.83 9.96, 3.83 9.96, 3.83 9.96 M3.31 22.75 C7.35 20.13, 8.61 16.31, 15.77 8.41 M3.31 22.75 C5.72 19, 9.46 16.09, 15.77 8.41 M3.44 34.79 C10.76 23.47, 21.58 17.57, 30.34 3.85 M3.44 34.79 C11.61 25.05, 18.72 17.9, 30.34 3.85 M3.57 46.83 C14.26 35.16, 23.55 25.15, 40.97 3.81 M3.57 46.83 C13.66 36.37, 24.15 24.68, 40.97 3.81 M3.71 58.87 C22.72 39.59, 37.16 15.89, 51.6 3.78 M3.71 58.87 C21.22 38.32, 40.52 17.29, 51.6 3.78 M3.18 71.67 C19.07 52.4, 36.94 36.03, 62.23 3.75 M3.18 71.67 C16.02 55.69, 29.3 41.81, 62.23 3.75 M2.01 85.22 C30.57 52.94, 56.3 23.07, 72.86 3.71 M2.01 85.22 C16.07 68.1, 30.06 51.42, 72.86 3.71 M4.76 94.24 C30.19 66.42, 50.98 39.42, 83.49 3.68 M4.76 94.24 C20.1 74.62, 36.31 57.57, 83.49 3.68 M10.14 100.24 C38.12 67.23, 62.97 37.93, 94.12 3.64 M10.14 100.24 C40.22 65.98, 70.72 30.64, 94.12 3.64 M16.18 105.49 C44.96 73.72, 72.66 40.7, 104.75 3.61 M16.18 105.49 C43.79 75.54, 69.86 43.28, 104.75 3.61 M27.47 104.7 C58.89 66.3, 94.5 28.29, 115.38 3.57 M27.47 104.7 C46.08 81.95, 67.45 58.03, 115.38 3.57 M38.1 104.67 C65.07 74.68, 93.32 45.06, 126.01 3.54 M38.1 104.67 C58.74 80.22, 78.41 56.84, 126.01 3.54 M48.07 105.39 C75.08 72.96, 104.37 42.3, 136.64 3.5 M48.07 105.39 C69.8 82.04, 88.56 59.1, 136.64 3.5 M58.7 105.35 C77.51 80.21, 100.83 60.54, 147.27 3.47 M58.7 105.35 C86.27 75.18, 112.38 44.01, 147.27 3.47 M69.33 105.32 C93.91 77.04, 118.76 50.74, 156.59 4.94 M69.33 105.32 C104.03 66.81, 136.04 27.66, 156.59 4.94 M79.96 105.29 C101.51 80.76, 119.68 60.46, 167.87 4.15 M79.96 105.29 C100.33 80.8, 121.76 55.86, 167.87 4.15 M90.59 105.25 C109.59 86.19, 123.67 64.21, 173.26 10.16 M90.59 105.25 C116.23 72.77, 145.38 42.08, 173.26 10.16 M101.22 105.22 C121.73 83.47, 139.74 57.9, 179.29 15.41 M101.22 105.22 C117.99 87.71, 133.31 68.66, 179.29 15.41 M111.85 105.18 C131.41 84.79, 146.75 65.33, 182.05 24.43 M111.85 105.18 C135.19 78.62, 158.38 51.95, 182.05 24.43 M122.48 105.15 C134.15 90.83, 148.48 74.69, 182.18 36.47 M122.48 105.15 C141.88 82.41, 162.32 59.69, 182.18 36.47 M133.11 105.11 C149.09 84.64, 165.31 69.66, 182.32 48.51 M133.11 105.11 C143.66 92.5, 154.04 81.45, 182.32 48.51 M143.74 105.08 C150.85 94.93, 160.18 85.3, 182.45 60.55 M143.74 105.08 C158.48 87.5, 173.96 70.59, 182.45 60.55 M153.72 105.8 C161.45 96.2, 167.45 88.97, 177.34 78.63 M153.72 105.8 C160.77 98.79, 167.5 89.61, 177.34 78.63" stroke="#a5d8ff" stroke-width="1" fill="none"></path><path d="M26 0 M26 0 C72.95 -1.58, 120.08 -2.04, 151 0 M26 0 C71.99 0.86, 118.91 0.44, 151 0 M151 0 C168.67 -1.48, 175.71 9.23, 177 26 M151 0 C166.85 1.64, 176.07 6.62, 177 26 M177 26 C176.51 37.9, 176.4 54.38, 177 78 M177 26 C176.76 45, 177.71 64.06, 177 78 M177 78 C177.72 95.54, 169.09 103.34, 151 104 M177 78 C178.17 93.43, 166.51 103.43, 151 104 M151 104 C116.98 104.54, 80.92 105.84, 26 104 M151 104 C104.51 102.38, 58.11 103.6, 26 104 M26 104 C8.45 102.34, -0.22 94.47, 0 78 M26 104 C8.61 103.14, -0.24 97.23, 0 78 M0 78 C1.22 67.3, -1.18 58.45, 0 26 M0 78 C-0.65 65.59, 0.36 54.26, 0 26 M0 26 C0.1 8.95, 9.48 -1.87, 26 0 M0 26 C0.59 8.24, 10.7 -0.09, 26 0" stroke="#1e1e1e" stroke-width="2" fill="none"></path></g><g stroke-opacity="0" fill-opacity="0" stroke-linecap="round" transform="translate(617.3106692090817 210.54262910526342) rotate(0 83.87866158183567 83.87866158183564)"><path d="M49.51 7.66 C59 2.23, 73.76 0.2, 85.3 0.11 C96.85 0.03, 108.5 2.44, 118.76 7.13 C129.01 11.82, 139.45 19.71, 146.83 28.26 C154.21 36.8, 159.5 47.67, 163.02 58.41 C166.55 69.14, 169.19 81.49, 167.98 92.68 C166.76 103.87, 161.8 115.65, 155.74 125.56 C149.67 135.47, 140.63 145.49, 131.59 152.14 C122.55 158.8, 112.57 163.25, 101.49 165.46 C90.41 167.68, 76.26 167.75, 65.12 165.43 C53.97 163.11, 43.58 158.26, 34.64 151.55 C25.7 144.83, 17.07 135.19, 11.46 125.12 C5.86 115.04, 2.28 102.36, 0.99 91.09 C-0.3 79.83, 0.1 68.23, 3.7 57.52 C7.3 46.8, 13.57 35.67, 22.6 26.79 C31.63 17.92, 50.79 7.96, 57.89 4.26 C64.99 0.57, 64.96 3.28, 65.19 4.64 M101.46 2.91 C112.23 3.77, 123.22 9.81, 132.48 16.25 C141.74 22.68, 151.01 31.48, 157.03 41.51 C163.05 51.54, 167.54 65.15, 168.61 76.45 C169.69 87.76, 167.03 98.66, 163.46 109.35 C159.9 120.04, 154.93 132.26, 147.22 140.6 C139.51 148.94, 127.87 154.78, 117.22 159.39 C106.57 164, 94.62 168.28, 83.33 168.26 C72.03 168.24, 59.69 163.83, 49.47 159.26 C39.24 154.7, 29.73 149.02, 21.99 140.87 C14.25 132.72, 6.35 121.53, 3.01 110.35 C-0.32 99.17, 0.56 85.22, 1.97 73.79 C3.37 62.36, 6.03 51.4, 11.44 41.77 C16.85 32.15, 25.17 22.49, 34.45 16.03 C43.74 9.58, 55.75 5.57, 67.17 3.04 C78.58 0.52, 97.22 0.75, 102.95 0.88 C108.67 1, 101.94 2.43, 101.51 3.77" stroke="none" stroke-width="0" fill="#ffc9c9"></path><path d="M105.78 3.85 C116.56 5.61, 129.13 11.88, 138.1 19.01 C147.08 26.14, 154.61 36.27, 159.62 46.63 C164.62 56.99, 167.86 69.67, 168.11 81.15 C168.37 92.63, 165.49 104.97, 161.15 115.53 C156.8 126.08, 149.98 136.77, 142.03 144.48 C134.07 152.2, 124.01 157.98, 113.41 161.79 C102.81 165.61, 89.74 167.99, 78.45 167.38 C67.17 166.78, 55.81 163.32, 45.7 158.16 C35.58 152.99, 25.03 145.46, 17.77 136.38 C10.52 127.3, 4.77 114.63, 2.16 103.66 C-0.45 92.68, 0.14 81.51, 2.11 70.53 C4.08 59.54, 7.85 47.25, 13.98 37.75 C20.11 28.25, 29.41 19.69, 38.9 13.53 C48.38 7.37, 57.36 1.81, 70.9 0.8 C84.45 -0.21, 110.17 5.05, 120.16 7.46 C130.16 9.87, 131.49 13.98, 130.86 15.26 M98.99 0.78 C109.85 1.69, 121.76 9.01, 131.33 15.59 C140.91 22.17, 150.3 30.58, 156.42 40.27 C162.54 49.96, 166.5 62.38, 168.05 73.73 C169.6 85.08, 168.83 97.89, 165.71 108.37 C162.58 118.84, 157.01 127.89, 149.29 136.58 C141.58 145.27, 129.92 155.18, 119.41 160.49 C108.91 165.81, 97.63 168.16, 86.26 168.48 C74.89 168.8, 61.56 166.73, 51.2 162.42 C40.83 158.11, 31.83 150.81, 24.07 142.6 C16.3 134.39, 8.63 123.9, 4.6 113.14 C0.56 102.38, -0.89 89.24, -0.13 78.03 C0.63 66.82, 3.61 56.13, 9.16 45.88 C14.71 35.63, 24.25 23.56, 33.18 16.51 C42.1 9.46, 51.96 6.26, 62.71 3.56 C73.46 0.87, 91.83 0.36, 97.68 0.36 C103.54 0.35, 97.75 1.93, 97.86 3.56" stroke="#1e1e1e" stroke-width="1" fill="none"></path></g><g transform="translate(655.095580790917 321.25792057670935) rotate(0 46.09375 17.5)"><text x="46.09375" y="0" font-family="Virgil, Segoe UI Emoji" font-size="28px" fill="#1e1e1e" text-anchor="middle" style="white-space: pre;" direction="ltr" dominant-baseline="text-before-edge">mongod</text></g><g stroke-linecap="round"><g transform="translate(665.3945118278473 258.0663276666409) rotate(0 31.01180507396873 15.01627458743549)" fill-rule="evenodd"><path d="M0.58 -0.69 L0.9 46.45 L7.73 52.57 L12.15 56.55 L24.13 60.11 L39.22 56.23 L48.96 54.34 L58.39 47.66 L59.31 40.33 L62.66 -12.98 L58.02 -18.92 L46.38 -24.73 L37.42 -24.67 L15.53 -26.64 L7.18 -21.4 L0.42 -18.3 L-0.53 0.82" stroke="none" stroke-width="0" fill="#ffc9c9" fill-rule="evenodd"></path><path d="M-0.91 -0.97 C-0.88 5.85, 0.38 33.15, 0.86 41.42 C1.33 49.7, 0.33 46.4, 1.95 48.69 C3.57 50.98, 7.03 53.67, 10.58 55.16 C14.12 56.65, 18.61 57.25, 23.23 57.64 C27.86 58.02, 33.67 58.17, 38.33 57.45 C42.98 56.73, 47.87 55.1, 51.16 53.3 C54.45 51.5, 56.48 48.82, 58.06 46.64 C59.64 44.46, 60.05 45.53, 60.62 40.23 C61.19 34.93, 61.23 23.05, 61.51 14.86 C61.78 6.67, 62.51 -3.85, 62.27 -8.93 C62.03 -14.01, 61.27 -13.38, 60.06 -15.64 C58.86 -17.91, 58.58 -20.68, 55.05 -22.54 C51.52 -24.41, 44.35 -26.02, 38.87 -26.85 C33.4 -27.69, 27.29 -28.38, 22.21 -27.54 C17.13 -26.71, 11.92 -23.71, 8.4 -21.81 C4.89 -19.92, 2.62 -18.33, 1.12 -16.16 C-0.39 -13.98, -0.38 -11.54, -0.63 -8.78 C-0.88 -6.02, -0.55 -0.97, -0.39 0.42 M0.81 1.14 C0.71 7.57, 0.33 32.11, 0.36 39.7 C0.38 47.29, -0.76 44.49, 0.97 46.69 C2.71 48.88, 7.23 51.05, 10.76 52.87 C14.29 54.69, 17.87 57.06, 22.16 57.61 C26.44 58.15, 31.47 57.04, 36.47 56.14 C41.47 55.25, 48.2 53.88, 52.16 52.24 C56.11 50.6, 58.49 48.44, 60.22 46.3 C61.94 44.15, 62.14 44.71, 62.48 39.36 C62.83 34.02, 62.21 22.17, 62.29 14.24 C62.36 6.31, 63.02 -3.27, 62.92 -8.22 C62.83 -13.18, 62.92 -12.96, 61.73 -15.5 C60.54 -18.03, 59.66 -21.5, 55.78 -23.44 C51.9 -25.39, 43.92 -26.9, 38.44 -27.15 C32.95 -27.41, 27.73 -25.58, 22.89 -25 C18.05 -24.42, 12.66 -24.73, 9.39 -23.67 C6.12 -22.6, 4.63 -21.2, 3.28 -18.6 C1.94 -15.99, 1.6 -11.28, 1.33 -8.03 C1.07 -4.78, 1.73 -0.65, 1.68 0.9" stroke="#1e1e1e" stroke-width="1" fill="none"></path></g></g><mask></mask><g stroke-linecap="round"><g transform="translate(665.8662740630227 244.00277150889366) rotate(0 31.005547159591174 6.575740555797154)"><path d="M0.86 0.76 C2.04 2.26, 2.72 6.03, 6.2 8.03 C9.68 10.03, 16.31 12.12, 21.74 12.77 C27.18 13.42, 33.58 12.74, 38.8 11.94 C44.03 11.14, 49.22 9.62, 53.11 7.98 C57 6.34, 60.92 3.17, 62.16 2.11 M-0.15 0.12 C0.92 1.35, 1.53 4.48, 5.04 6.25 C8.55 8.01, 15.18 9.63, 20.92 10.7 C26.65 11.76, 34.26 13.06, 39.44 12.63 C44.63 12.2, 48.56 9.99, 52.03 8.11 C55.5 6.23, 58.82 2.66, 60.27 1.35" stroke="#1e1e1e" stroke-width="1" fill="none"></path></g></g><mask></mask><g stroke-linecap="round"><g transform="translate(665.361380690427 257.31228426000865) rotate(0 30.55226853502677 6.642866703626169)"><path d="M-0.41 0.64 C0.53 1.83, 2.65 6.09, 6.49 7.9 C10.32 9.7, 17.22 10.75, 22.61 11.47 C27.99 12.19, 33.73 12.64, 38.8 12.23 C43.87 11.82, 49.41 10.8, 53.04 9.02 C56.67 7.25, 59.21 2.65, 60.58 1.58 M1.58 -0.07 C2.28 0.69, 2.04 3.97, 5.48 6.04 C8.92 8.11, 16.57 11.2, 22.23 12.37 C27.89 13.54, 34.49 13.51, 39.44 13.07 C44.39 12.62, 48.25 11.78, 51.93 9.7 C55.61 7.61, 59.87 1.86, 61.51 0.54" stroke="#1e1e1e" stroke-width="1" fill="none"></path></g></g><mask></mask><g stroke-linecap="round"><g transform="translate(664.929161278704 266.9550242941039) rotate(0 30.450804968757893 6.578460721994986)"><path d="M-0.12 0.51 C1.18 1.5, 3.57 4.72, 7.35 6.6 C11.14 8.47, 17.37 10.65, 22.6 11.76 C27.83 12.87, 33.92 13.81, 38.73 13.27 C43.54 12.73, 47.7 10.28, 51.46 8.49 C55.21 6.71, 59.57 3.77, 61.25 2.56 M-1.64 -0.27 C-0.4 0.8, 2.82 5.54, 6.8 7.72 C10.77 9.9, 16.81 12.26, 22.23 12.81 C27.65 13.36, 34.18 11.65, 39.34 10.99 C44.49 10.34, 49.3 10.38, 53.17 8.89 C57.03 7.39, 61.04 2.95, 62.54 2.04" stroke="#1e1e1e" stroke-width="1" fill="none"></path></g></g><mask></mask><g stroke-linecap="round" transform="translate(731.6893307909179 120.32131510116159) rotate(0 80 31.5)"><path d="M2.34 6.01 C2.34 6.01, 2.34 6.01, 2.34 6.01 M2.34 6.01 C2.34 6.01, 2.34 6.01, 2.34 6.01 M4.44 15.79 C10.63 12.36, 13.06 6.59, 16.91 1.45 M4.44 15.79 C7.81 12.68, 11.04 8.5, 16.91 1.45 M4.57 27.83 C10.5 22.32, 14.48 16.09, 27.54 1.41 M4.57 27.83 C11.49 21.13, 17.41 14.57, 27.54 1.41 M4.71 39.87 C15.43 23.37, 31.51 9.61, 38.17 1.38 M4.71 39.87 C17.15 26.53, 28.22 13.11, 38.17 1.38 M3.53 53.42 C18 40.34, 26.97 23.47, 48.8 1.34 M3.53 53.42 C20.46 34.67, 38.46 15.21, 48.8 1.34 M6.94 61.68 C17.92 48.94, 26.96 37.74, 59.43 1.31 M6.94 61.68 C25.68 39.63, 45.29 16.52, 59.43 1.31 M13.64 66.18 C27.72 47.06, 41.94 31.13, 70.06 1.27 M13.64 66.18 C35.79 41.78, 58.47 16.29, 70.06 1.27 M24.27 66.14 C39.1 48.16, 57.96 27.82, 80.03 1.99 M24.27 66.14 C45.03 42.18, 64.48 20.25, 80.03 1.99 M34.9 66.11 C50.46 48.06, 63.86 32.92, 90.66 1.96 M34.9 66.11 C48.56 48.8, 63.71 33.1, 90.66 1.96 M45.53 66.08 C61.46 49.15, 74.02 33.09, 101.29 1.92 M45.53 66.08 C67.62 41.28, 87.36 18.24, 101.29 1.92 M55.5 66.8 C72.78 50.42, 85.42 30.95, 111.92 1.89 M55.5 66.8 C72.71 46.06, 91.02 26.37, 111.92 1.89 M66.13 66.76 C87.02 45.21, 103.38 20.6, 122.55 1.86 M66.13 66.76 C79.59 49.92, 93.89 33.67, 122.55 1.86 M76.76 66.73 C97.73 47.41, 114.99 23.13, 133.18 1.82 M76.76 66.73 C94.99 45.21, 113.74 22.3, 133.18 1.82 M87.39 66.69 C107.39 45.59, 127.53 21.36, 143.81 1.79 M87.39 66.69 C102.12 47.61, 118.4 29.69, 143.81 1.79 M98.02 66.66 C109.63 53.49, 122.6 37.89, 153.13 3.26 M98.02 66.66 C113.01 48.83, 128.36 31.85, 153.13 3.26 M108.65 66.62 C119.58 50.44, 135.08 38.13, 159.82 7.76 M108.65 66.62 C126.84 47.83, 142.82 27.76, 159.82 7.76 M119.28 66.59 C135.35 45.19, 150.59 27.48, 163.89 15.27 M119.28 66.59 C134.54 48.64, 148.76 30.44, 163.89 15.27 M129.25 67.31 C136.86 57.74, 148.5 44.42, 163.37 28.06 M129.25 67.31 C139.92 54.89, 148.45 45.15, 163.37 28.06 M139.88 67.27 C149.53 56.55, 156.21 48.68, 163.5 40.1 M139.88 67.27 C148.03 58.33, 155.18 50.65, 163.5 40.1 M4.15 59.25 C4.15 59.25, 4.15 59.25, 4.15 59.25 M4.15 59.25 C4.15 59.25, 4.15 59.25, 4.15 59.25 M13.17 56.49 C10.48 53.72, 8.99 50.91, 3.36 47.96 M13.17 56.49 C10.85 54.57, 8.97 52.75, 3.36 47.96 M25.97 57.01 C17.99 50.76, 11.42 45.67, 3.33 37.33 M25.97 57.01 C17.51 48.83, 8.72 41.33, 3.33 37.33 M38.01 56.88 C26.48 44.65, 14.66 34.92, 3.29 26.7 M38.01 56.88 C28.89 48.93, 19.34 39.86, 3.29 26.7 M50.05 56.75 C40.35 46.07, 26.13 36.52, 3.26 16.07 M50.05 56.75 C31.81 40.65, 15.58 26.47, 3.26 16.07 M62.84 57.27 C43.98 41.86, 24.71 24.9, 3.22 5.44 M62.84 57.27 C44.64 40.15, 24.83 24.64, 3.22 5.44 M74.88 57.14 C56.95 41.07, 37.32 26.18, 8.47 -0.6 M74.88 57.14 C50.09 34.56, 25.36 14.42, 8.47 -0.6 M86.93 57 C66.7 39.61, 46.96 22.19, 18.25 -2.7 M86.93 57 C61.8 34.67, 34.85 10.63, 18.25 -2.7 M99.72 57.52 C73.64 32.73, 47.84 12.37, 30.29 -2.83 M99.72 57.52 C77.53 37.07, 54.81 18.2, 30.29 -2.83 M111.76 57.39 C84.26 33.58, 60.39 9.59, 43.08 -2.31 M111.76 57.39 C87.53 36.49, 63.85 15.85, 43.08 -2.31 M123.8 57.26 C110.06 43.76, 91.71 30.08, 55.12 -2.44 M123.8 57.26 C107.83 44.3, 93.4 31.95, 55.12 -2.44 M136.6 57.78 C113.22 38.06, 91.63 17.47, 67.16 -2.58 M136.6 57.78 C116.82 40.92, 97.29 23.01, 67.16 -2.58 M148.64 57.65 C125.19 37.6, 105.05 20.87, 79.96 -2.05 M148.64 57.65 C134.02 44.28, 120.8 32.03, 79.96 -2.05 M158.42 55.55 C133.53 35.5, 111 13.32, 92 -2.19 M158.42 55.55 C140.65 39.94, 122.08 24.51, 92 -2.19 M163.66 49.51 C140.96 31.78, 119.8 13.21, 104.04 -2.32 M163.66 49.51 C144.85 33.23, 127.86 18.18, 104.04 -2.32 M163.63 38.88 C152.47 30.05, 142.5 19.14, 116.84 -1.8 M163.63 38.88 C153.99 29.23, 143.07 20.53, 116.84 -1.8 M163.6 28.25 C154.45 22.63, 148.12 13.95, 128.88 -1.93 M163.6 28.25 C152.89 18.83, 141.42 10.16, 128.88 -1.93 M163.56 17.62 C156.92 10.36, 145.95 4.41, 140.92 -2.06 M163.56 17.62 C159.01 12.22, 153.53 8.77, 140.92 -2.06" stroke="#ffec99" stroke-width="1" fill="none"></path><path d="M15.75 0 M15.75 0 C58.41 0.43, 103.47 0.98, 144.25 0 M15.75 0 C46.45 -0.37, 77.87 -1.93, 144.25 0 M144.25 0 C153.03 -0.89, 159.3 5.63, 160 15.75 M144.25 0 C153.49 0.54, 159.18 3.69, 160 15.75 M160 15.75 C160.16 25.38, 158.82 36.08, 160 47.25 M160 15.75 C159.15 26.83, 159.91 38.05, 160 47.25 M160 47.25 C158.16 59.62, 155.03 64.77, 144.25 63 M160 47.25 C159.27 55.75, 153.23 63.9, 144.25 63 M144.25 63 C104.6 62.31, 65.59 65.29, 15.75 63 M144.25 63 C113.22 63.73, 79.97 63.36, 15.75 63 M15.75 63 C6.82 61.54, 1.69 58.3, 0 47.25 M15.75 63 C4.69 61.07, -0.16 56.56, 0 47.25 M0 47.25 C0.49 37.09, 1.04 26.96, 0 15.75 M0 47.25 C-0.92 40.05, -0.83 32.37, 0 15.75 M0 15.75 C-1.38 6.72, 4.34 0.88, 15.75 0 M0 15.75 C2.13 4.23, 7.34 0.49, 15.75 0" stroke="#1e1e1e" stroke-width="2" fill="none"></path></g><g transform="translate(637.6893307909179 107.32131510116159) rotate(0 39.47916793823242 12.5)"><text x="0" y="0" font-family="Virgil, Segoe UI Emoji" font-size="20px" fill="#1e1e1e" text-anchor="start" style="white-space: pre;" direction="ltr" dominant-baseline="text-before-edge">NODE-2</text></g><g mask="url(#mask-gNjcHh5VrIcaMeP3R-XU9)" stroke-linecap="round"><g transform="translate(865.6893307909179 341.3213151011616) rotate(0 -1.2485614709462425 43.97188531092834)"><path d="M-0.91 0 C-1.4 14.74, -2.06 74.37, -2.24 88.99 M0.81 -1.04 C0.09 13.33, -2.72 72.4, -3.31 87.38" stroke="#1e1e1e" stroke-width="2" fill="none"></path></g><g transform="translate(865.6893307909179 341.3213151011616) rotate(0 -1.2485614709462425 43.97188531092834)"><path d="M-12.31 58.37 C-7.34 69.07, -6.31 80.28, -4.19 85.53 M-11.9 58.59 C-8.01 69.08, -5.12 82.03, -3.69 88.13" stroke="#1e1e1e" stroke-width="2" fill="none"></path></g><g transform="translate(865.6893307909179 341.3213151011616) rotate(0 -1.2485614709462425 43.97188531092834)"><path d="M8.19 59.27 C5.85 69.5, -0.43 80.39, -4.19 85.53 M8.6 59.49 C4.47 69.61, -0.66 82.21, -3.69 88.13" stroke="#1e1e1e" stroke-width="2" fill="none"></path></g></g><mask id="mask-gNjcHh5VrIcaMeP3R-XU9"><rect x="0" y="0" fill="#fff" width="967.6893307909179" height="529.3213151011616"></rect><rect x="842.6580807909179" y="375.3213151011616" fill="#000" width="44.0625" height="20" opacity="1"></rect></mask><g mask="url(#mask-H2npKBBhpo6E9a12C_nNo)" stroke-linecap="round"><g transform="translate(946.6893307909179 337.3213151011616) rotate(0 -1.4833162033511371 43.59523727594873)"><path d="M0.02 -0.33 C-0.33 14.09, -1.68 72.57, -2.37 87.47 M-1.43 -1.54 C-1.86 12.94, -2.93 73.92, -2.99 88.73" stroke="#1e1e1e" stroke-width="2" fill="none"></path></g><g transform="translate(946.6893307909179 337.3213151011616) rotate(0 -1.4833162033511371 43.59523727594873)"><path d="M-13.45 61.47 C-10.77 66.51, -5.3 77.88, -3.23 89.57 M-12.98 61.3 C-10.33 69.25, -7.8 77.11, -3.31 89.08" stroke="#1e1e1e" stroke-width="2" fill="none"></path></g><g transform="translate(946.6893307909179 337.3213151011616) rotate(0 -1.4833162033511371 43.59523727594873)"><path d="M7.07 61.72 C3.99 66.69, 3.72 77.99, -3.23 89.57 M7.54 61.55 C4.39 69.25, 1.12 77.04, -3.31 89.08" stroke="#1e1e1e" stroke-width="2" fill="none"></path></g></g><mask id="mask-H2npKBBhpo6E9a12C_nNo"><rect x="0" y="0" fill="#fff" width="1049.689330790918" height="525.3213151011616"></rect><rect x="925.3872468218017" y="371.3213151011616" fill="#000" width="39.60416793823242" height="20" opacity="1"></rect></mask><g stroke-linecap="round"><g transform="translate(867.9517796937237 184.3213151011616) rotate(0 -0.11419466072095474 22.967568861832873)"><path d="M-1.11 1.09 C-1.07 8.49, 0.62 36.74, 0.88 43.85 M0.51 0.62 C0.42 8.25, 0.53 37.92, 0.43 45.32" stroke="#1e1e1e" stroke-width="2" fill="none"></path></g><g transform="translate(867.9517796937237 184.3213151011616) rotate(0 -0.11419466072095474 22.967568861832873)"><path d="M-5.19 26.21 C-4.72 32.82, -2.2 40.39, -1.33 45.17 M-7.67 25.22 C-4.53 32.94, -1.01 40.27, 0.72 44.97" stroke="#1e1e1e" stroke-width="2" fill="none"></path></g><g transform="translate(867.9517796937237 184.3213151011616) rotate(0 -0.11419466072095474 22.967568861832873)"><path d="M9.86 26.26 C5.02 32.72, 2.24 40.27, -1.33 45.17 M7.38 25.27 C4.68 33.09, 2.36 40.4, 0.72 44.97" stroke="#1e1e1e" stroke-width="2" fill="none"></path></g></g><mask></mask><g stroke-linecap="round"><g transform="translate(816.6893307909179 280.30513366138445) rotate(0 -44.61140153407587 -1.1691961344977528)"><path d="M0.96 -0.15 C-13.78 -0.69, -74.45 -1.71, -89.5 -2.19 M0 -1.27 C-14.75 -1.11, -75.22 -0.6, -90.18 -0.77" stroke="#1e1e1e" stroke-width="2" fill="none"></path></g><g transform="translate(816.6893307909179 280.30513366138445) rotate(0 -44.61140153407587 -1.1691961344977528)"><path d="M-62.23 -10.19 C-68.1 -7.56, -75.37 -6.69, -88.42 -1.53 M-62.31 -10.68 C-72.31 -7.37, -82.88 -3.52, -89.87 0.03" stroke="#1e1e1e" stroke-width="2" fill="none"></path></g><g transform="translate(816.6893307909179 280.30513366138445) rotate(0 -44.61140153407587 -1.1691961344977528)"><path d="M-62.23 10.33 C-68.28 8.7, -75.55 5.31, -88.42 -1.53 M-62.31 9.84 C-72.17 5.47, -82.75 1.63, -89.87 0.03" stroke="#1e1e1e" stroke-width="2" fill="none"></path></g></g><mask></mask><g stroke-linecap="round" transform="translate(350.6893307909179 490.32131510116164) rotate(0 202 131.5)"><path d="M32 0 M32 0 C127.51 1.83, 219.33 0.2, 372 0 M32 0 C158.74 1.69, 286.38 1.68, 372 0 M372 0 C391.61 1.72, 402.36 10.95, 404 32 M372 0 C393.03 -2.18, 405.64 12.2, 404 32 M404 32 C404.37 93.79, 402.43 155.28, 404 231 M404 32 C401.65 105.93, 402.54 182.74, 404 231 M404 231 C402.77 251.17, 392.67 264.36, 372 263 M404 231 C404.59 253.72, 393.24 264.4, 372 263 M372 263 C297.83 263.1, 223 263.56, 32 263 M372 263 C254.76 261.75, 137.1 261.95, 32 263 M32 263 C10.52 264.36, -1.22 252.43, 0 231 M32 263 C11.25 261.99, 1.98 253.99, 0 231 M0 231 C1.46 172.01, -0.7 114.07, 0 32 M0 231 C0.49 165.36, -0.6 98.84, 0 32 M0 32 C1.97 9.25, 10.76 0.08, 32 0 M0 32 C-0.51 10.92, 11.39 1.94, 32 0" stroke="#1e1e1e" stroke-width="2" fill="none"></path></g><g stroke-linecap="round" transform="translate(546.6893307909179 618.3213151011616) rotate(0 88.5 52)"><path d="M3.83 9.96 C3.83 9.96, 3.83 9.96, 3.83 9.96 M3.83 9.96 C3.83 9.96, 3.83 9.96, 3.83 9.96 M3.31 22.75 C4.2 21, 9.99 16.73, 15.77 8.41 M3.31 22.75 C7.14 17.52, 10.77 14.65, 15.77 8.41 M3.44 34.79 C7.75 27.9, 17.68 19.68, 30.34 3.85 M3.44 34.79 C10.3 27.73, 16.51 20.26, 30.34 3.85 M3.57 46.83 C13.17 36.45, 21.51 27.66, 40.97 3.81 M3.57 46.83 C16.31 32.67, 28.71 18.11, 40.97 3.81 M3.71 58.87 C17.45 43.55, 30.49 28.64, 51.6 3.78 M3.71 58.87 C22.36 38.86, 39.04 17.28, 51.6 3.78 M3.18 71.67 C18.02 53.45, 37.52 32.21, 62.23 3.75 M3.18 71.67 C23.44 48.11, 44.06 24.15, 62.23 3.75 M2.01 85.22 C23.46 57.94, 48.62 31.32, 72.86 3.71 M2.01 85.22 C18.08 67.84, 34.06 49.49, 72.86 3.71 M4.76 94.24 C24.57 66.92, 47.13 45.01, 83.49 3.68 M4.76 94.24 C22.76 73.55, 42.06 51.97, 83.49 3.68 M10.14 100.24 C27.72 77.67, 46.64 58.13, 94.12 3.64 M10.14 100.24 C43.17 61, 76.87 23.68, 94.12 3.64 M16.18 105.49 C42.43 75.16, 65.37 48.83, 104.75 3.61 M16.18 105.49 C42.15 76.38, 67.9 47.52, 104.75 3.61 M27.47 104.7 C45.65 83.25, 65.07 59.41, 115.38 3.57 M27.47 104.7 C54.42 74.37, 81.8 43.77, 115.38 3.57 M38.1 104.67 C69.83 72.27, 100.02 33.53, 126.01 3.54 M38.1 104.67 C59.26 78.71, 82.74 53.58, 126.01 3.54 M48.07 105.39 C78.66 68.77, 113.78 33.68, 136.64 3.5 M48.07 105.39 C81.65 64.91, 116.43 26.4, 136.64 3.5 M58.7 105.35 C87.21 72.43, 113.82 42.59, 147.27 3.47 M58.7 105.35 C79.78 81.06, 103.68 54.02, 147.27 3.47 M69.33 105.32 C96.01 74.52, 122.81 43.26, 156.59 4.94 M69.33 105.32 C94.02 77.42, 119.62 48.29, 156.59 4.94 M79.96 105.29 C95.38 84.93, 114.25 64.33, 167.87 4.15 M79.96 105.29 C101.05 80.29, 123.41 54.15, 167.87 4.15 M90.59 105.25 C114.71 78.56, 133.59 52.87, 173.26 10.16 M90.59 105.25 C111.81 81.41, 132.65 57.6, 173.26 10.16 M101.22 105.22 C120.16 84.55, 141.3 62.77, 179.29 15.41 M101.22 105.22 C131.83 70.37, 162.07 35.91, 179.29 15.41 M111.85 105.18 C130.88 84.65, 146.89 63.62, 182.05 24.43 M111.85 105.18 C136.51 75.97, 160.39 48.58, 182.05 24.43 M122.48 105.15 C134.28 88.42, 151.7 71.6, 182.18 36.47 M122.48 105.15 C138.91 88.63, 153.68 69.42, 182.18 36.47 M133.11 105.11 C145.59 90.4, 159.75 75.31, 182.32 48.51 M133.11 105.11 C145.17 90.16, 158.9 75.86, 182.32 48.51 M143.74 105.08 C157.96 89.44, 173.83 71.84, 182.45 60.55 M143.74 105.08 C152.37 95.57, 161.58 84.01, 182.45 60.55 M153.72 105.8 C159.91 97.75, 169.13 88.14, 177.34 78.63 M153.72 105.8 C160.3 97.17, 167.96 89.23, 177.34 78.63" stroke="#a5d8ff" stroke-width="1" fill="none"></path><path d="M26 0 M26 0 C54.53 1.27, 85.21 1.33, 151 0 M26 0 C65.55 0.99, 105.47 1.13, 151 0 M151 0 C168.22 -0.86, 176.41 10.61, 177 26 M151 0 C166.73 1.15, 179.29 9.24, 177 26 M177 26 C177.06 42.02, 178.66 63.09, 177 78 M177 26 C175.79 45.13, 177.59 66.23, 177 78 M177 78 C175.04 94.33, 166.47 103.47, 151 104 M177 78 C177.44 97.18, 167.05 103.17, 151 104 M151 104 C113.6 102.35, 76.53 102.88, 26 104 M151 104 C107.47 103.6, 64.41 102.97, 26 104 M26 104 C7.04 103.97, 0.63 93.47, 0 78 M26 104 C7.96 103.18, -1.37 93.55, 0 78 M0 78 C-1.15 60.05, -0.13 44.29, 0 26 M0 78 C-0.25 57.75, 0.43 37.56, 0 26 M0 26 C1.21 10.58, 9.85 1.12, 26 0 M0 26 C1.57 7.52, 9.23 -0.85, 26 0" stroke="#1e1e1e" stroke-width="2" fill="none"></path></g><g stroke-opacity="0" fill-opacity="0" stroke-linecap="round" transform="translate(345.31066920908165 598.5426291052634) rotate(0 83.87866158183567 83.87866158183567)"><path d="M91.26 0.02 C102 -0.24, 114.58 5.29, 124.63 11.04 C134.68 16.79, 144.72 25.41, 151.55 34.51 C158.39 43.61, 163.1 54.56, 165.64 65.64 C168.18 76.72, 169.17 89.98, 166.79 101 C164.41 112.02, 158.17 122.44, 151.35 131.77 C144.54 141.09, 135.7 151.14, 125.91 156.96 C116.11 162.79, 103.89 165.67, 92.56 166.7 C81.24 167.72, 68.72 166.4, 57.97 163.11 C47.21 159.82, 36.59 154.52, 28.05 146.95 C19.51 139.39, 11.28 127.98, 6.74 117.73 C2.2 107.47, 0.77 96.72, 0.82 85.43 C0.87 74.13, 2.56 60.47, 7.03 49.96 C11.5 39.45, 19.08 30.02, 27.63 22.36 C36.18 14.71, 46.78 7.65, 58.32 4.04 C69.86 0.42, 90.01 0.72, 96.85 0.67 C103.69 0.61, 99.69 2.31, 99.38 3.7 M98.6 1.24 C109.48 1.76, 123.27 8.47, 132.54 14.82 C141.8 21.17, 148.6 29.62, 154.18 39.33 C159.77 49.03, 164.54 61.46, 166.05 73.05 C167.56 84.64, 166.56 98.06, 163.24 108.86 C159.91 119.66, 153.21 129.5, 146.11 137.84 C139.02 146.19, 130.62 153.99, 120.64 158.92 C110.66 163.85, 97.95 167.01, 86.22 167.42 C74.48 167.82, 61.03 165.7, 50.25 161.33 C39.46 156.95, 29.29 149.31, 21.48 141.15 C13.67 132.98, 7.03 122.81, 3.39 112.34 C-0.25 101.87, -1.62 90.01, -0.36 78.33 C0.91 66.66, 5.52 52.39, 11 42.27 C16.47 32.15, 23.3 24.2, 32.5 17.61 C41.69 11.02, 55.23 5.53, 66.16 2.73 C77.08 -0.08, 92.38 0.56, 98.03 0.77 C103.69 0.97, 100.2 2.46, 100.06 3.98" stroke="none" stroke-width="0" fill="#ffc9c9"></path><path d="M73.17 -0.13 C83.78 -3.1, 97.55 -0.74, 108.42 2.59 C119.28 5.92, 130.02 12.24, 138.38 19.86 C146.74 27.49, 153.57 38.05, 158.57 48.34 C163.57 58.64, 167.9 70.47, 168.39 81.64 C168.88 92.82, 165.93 104.91, 161.5 115.4 C157.08 125.88, 150.23 136.68, 141.84 144.55 C133.45 152.42, 121.77 158.91, 111.16 162.62 C100.56 166.33, 89.48 167.77, 78.21 166.79 C66.95 165.81, 53.88 162.04, 43.59 156.75 C33.3 151.45, 23.17 143.98, 16.45 135.03 C9.73 126.07, 5.88 114.09, 3.27 102.99 C0.66 91.89, -1.22 79.45, 0.79 68.41 C2.81 57.37, 8.72 46.09, 15.34 36.75 C21.97 27.42, 30.33 18.59, 40.53 12.4 C50.72 6.2, 70.19 1.3, 76.52 -0.42 C82.86 -2.14, 78.4 0.63, 78.52 2.09 M109.34 2.62 C120.09 4.53, 130.7 13.34, 139.02 21.13 C147.35 28.93, 154.52 39.03, 159.29 49.4 C164.06 59.76, 167.48 72.11, 167.63 83.32 C167.79 94.52, 164.57 106.42, 160.22 116.62 C155.88 126.81, 149.49 136.55, 141.55 144.49 C133.61 152.42, 123.42 160.52, 112.59 164.23 C101.76 167.94, 87.93 167.84, 76.58 166.75 C65.23 165.66, 54.53 163.28, 44.5 157.7 C34.48 152.11, 23.53 142.29, 16.43 133.24 C9.33 124.18, 4.38 114.43, 1.89 103.37 C-0.61 92.3, -0.84 77.93, 1.46 66.85 C3.77 55.78, 9.37 45.93, 15.72 36.93 C22.07 27.93, 29.68 19.07, 39.56 12.85 C49.45 6.62, 63.55 1.1, 75.02 -0.42 C86.48 -1.95, 102.95 2.72, 108.36 3.69 C113.77 4.66, 107.81 3.86, 107.47 5.4" stroke="#1e1e1e" stroke-width="1" fill="none"></path></g><g transform="translate(383.095580790917 709.2579205767094) rotate(0 46.09375 17.5)"><text x="46.09375" y="0" font-family="Virgil, Segoe UI Emoji" font-size="28px" fill="#1e1e1e" text-anchor="middle" style="white-space: pre;" direction="ltr" dominant-baseline="text-before-edge">mongod</text></g><g stroke-linecap="round"><g transform="translate(393.3945118278473 646.066327666641) rotate(0 30.704833107356535 16.96184762655423)" fill-rule="evenodd"><path d="M1.4 -1.35 L0.56 45.72 L5.2 53.02 L10.55 56.02 L21.27 58.53 L38.09 57.08 L52.2 54.21 L58.83 45.7 L62.44 39.78 L61.15 -15.31 L58.2 -19.15 L46.77 -26.4 L39.2 -25.23 L13.05 -23.96 L10.46 -24.29 L1.67 -16.97 L-0.44 0.22" stroke="none" stroke-width="0" fill="#ffc9c9" fill-rule="evenodd"></path><path d="M1 0.47 C0.88 7.33, -1.1 33.74, -1.04 41.69 C-0.97 49.65, -0.55 46.25, 1.38 48.22 C3.3 50.19, 6.87 51.68, 10.53 53.52 C14.19 55.35, 18.81 58.48, 23.34 59.23 C27.88 59.98, 33.28 59.1, 37.72 58.05 C42.15 56.99, 46.42 54.98, 49.95 52.91 C53.48 50.83, 57.13 47.73, 58.89 45.61 C60.66 43.48, 60.24 45.31, 60.53 40.16 C60.82 35.01, 60.62 23, 60.63 14.71 C60.63 6.42, 60.46 -4.52, 60.54 -9.58 C60.63 -14.63, 62.33 -13.39, 61.13 -15.64 C59.93 -17.89, 57.21 -21.4, 53.36 -23.1 C49.5 -24.8, 43.22 -25.39, 37.97 -25.83 C32.72 -26.27, 26.77 -26.38, 21.85 -25.76 C16.93 -25.15, 11.98 -23.47, 8.44 -22.14 C4.9 -20.82, 1.94 -20.03, 0.62 -17.82 C-0.71 -15.61, 0.68 -11.94, 0.49 -8.85 C0.31 -5.76, -0.39 -0.86, -0.48 0.71 M0.07 -0.33 C0.34 6.17, 0.52 31.79, 1.13 40.11 C1.75 48.44, 2.16 47.31, 3.75 49.63 C5.35 51.95, 7.6 52.29, 10.7 54.02 C13.79 55.76, 17.57 59.54, 22.32 60.04 C27.07 60.54, 34.53 58.45, 39.2 57.05 C43.87 55.65, 47.21 53.08, 50.32 51.63 C53.42 50.19, 55.83 50.45, 57.83 48.38 C59.83 46.32, 61.82 44.99, 62.34 39.26 C62.86 33.53, 61.28 22.08, 60.94 14 C60.6 5.92, 60.49 -4.29, 60.28 -9.21 C60.08 -14.12, 60.87 -13.58, 59.69 -15.49 C58.51 -17.39, 56.97 -18.94, 53.2 -20.63 C49.42 -22.31, 42.2 -24.71, 37.06 -25.59 C31.91 -26.48, 26.94 -26.18, 22.34 -25.94 C17.74 -25.7, 12.76 -25.58, 9.45 -24.17 C6.15 -22.76, 4.2 -20.15, 2.52 -17.47 C0.84 -14.8, -0.45 -11.28, -0.62 -8.14 C-0.78 -5.01, 1.37 0.14, 1.54 1.34" stroke="#1e1e1e" stroke-width="1" fill="none"></path></g></g><mask></mask><g stroke-linecap="round"><g transform="translate(393.86627406302273 632.0027715088936) rotate(0 30.53055607450881 7.065278613696989)"><path d="M-1.04 1.03 C-0.27 2.22, 1.83 5.88, 5.62 7.56 C9.41 9.24, 16.15 10.13, 21.7 11.13 C27.25 12.12, 33.78 13.96, 38.91 13.54 C44.05 13.11, 48.82 10.55, 52.5 8.58 C56.17 6.61, 59.48 3.05, 60.96 1.71 M0.62 0.53 C1.67 1.89, 4.45 7.3, 7.82 9.19 C11.19 11.08, 15.55 11.48, 20.85 11.85 C26.15 12.22, 34.57 11.87, 39.61 11.4 C44.65 10.93, 47.35 10.79, 51.1 9.01 C54.85 7.24, 60.28 1.86, 62.1 0.74" stroke="#1e1e1e" stroke-width="1" fill="none"></path></g></g><mask></mask><g stroke-linecap="round"><g transform="translate(393.36138069042704 645.3122842600087) rotate(0 30.89985355866827 6.613595536347702)"><path d="M-0.98 0.17 C0.26 1.04, 2.49 4.1, 6.44 6.25 C10.39 8.4, 17.42 11.97, 22.72 13.07 C28.01 14.16, 33.33 13.56, 38.19 12.82 C43.04 12.08, 47.97 10.68, 51.84 8.63 C55.71 6.58, 59.86 1.57, 61.41 0.54 M0.7 -0.78 C1.87 0.71, 1.8 5.2, 5.41 7.19 C9.03 9.18, 16.88 10.01, 22.4 11.14 C27.92 12.27, 33.28 14.32, 38.51 13.97 C43.73 13.63, 49.71 10.98, 53.75 9.09 C57.8 7.2, 61.47 3.87, 62.78 2.62" stroke="#1e1e1e" stroke-width="1" fill="none"></path></g></g><mask></mask><g stroke-linecap="round"><g transform="translate(392.929161278704 654.9550242941039) rotate(0 30.34595409242661 6.813168149941134)"><path d="M-0.16 -1.14 C1.25 0.2, 3.77 5.94, 7.46 8.19 C11.15 10.44, 16.98 11.57, 21.99 12.35 C27 13.13, 32.48 13.69, 37.53 12.87 C42.58 12.06, 48.35 9.19, 52.29 7.46 C56.23 5.73, 59.77 3.55, 61.16 2.49 M-1.7 0.88 C-0.29 1.86, 3.13 4.35, 6.96 6.49 C10.8 8.63, 16.21 12.46, 21.3 13.72 C26.39 14.98, 32.59 15.12, 37.5 14.05 C42.41 12.98, 46.63 9.33, 50.78 7.31 C54.93 5.29, 60.72 2.62, 62.4 1.93" stroke="#1e1e1e" stroke-width="1" fill="none"></path></g></g><mask></mask><g stroke-linecap="round" transform="translate(459.6893307909179 508.32131510116164) rotate(0 80 31.5)"><path d="M2.34 6.01 C2.34 6.01, 2.34 6.01, 2.34 6.01 M2.34 6.01 C2.34 6.01, 2.34 6.01, 2.34 6.01 M4.44 15.79 C8.91 11.63, 8.66 9.19, 16.91 1.45 M4.44 15.79 C8.95 11.01, 12.82 4.55, 16.91 1.45 M4.57 27.83 C13.14 19.14, 20.39 11.99, 27.54 1.41 M4.57 27.83 C9.51 22.3, 15.14 16.13, 27.54 1.41 M4.71 39.87 C11.81 32.3, 22.13 21.24, 38.17 1.38 M4.71 39.87 C12.53 29.21, 21.17 20.61, 38.17 1.38 M3.53 53.42 C18.75 36.45, 31.83 24.34, 48.8 1.34 M3.53 53.42 C13.65 41.58, 24.56 30.39, 48.8 1.34 M6.94 61.68 C28.21 38.75, 46.85 13.57, 59.43 1.31 M6.94 61.68 C19.58 47.31, 31.22 34.08, 59.43 1.31 M13.64 66.18 C31.73 46.94, 49.7 23.12, 70.06 1.27 M13.64 66.18 C28.17 49.72, 40.74 35.5, 70.06 1.27 M24.27 66.14 C46.91 41.85, 70.14 15.19, 80.03 1.99 M24.27 66.14 C44.8 43.52, 64.18 20.99, 80.03 1.99 M34.9 66.11 C53.26 45.46, 72.6 20.35, 90.66 1.96 M34.9 66.11 C47.53 51.97, 60.14 36.15, 90.66 1.96 M45.53 66.08 C65.86 40.82, 86.83 17.2, 101.29 1.92 M45.53 66.08 C61.66 48.3, 78.53 28.11, 101.29 1.92 M55.5 66.8 C70.54 47.44, 83.53 33.77, 111.92 1.89 M55.5 66.8 C76.73 44.1, 96.76 20.18, 111.92 1.89 M66.13 66.76 C79.42 55.1, 92.24 40.67, 122.55 1.86 M66.13 66.76 C82.8 48.58, 99.69 28.15, 122.55 1.86 M76.76 66.73 C97.27 43.51, 117.21 20.58, 133.18 1.82 M76.76 66.73 C89.18 52.92, 100.44 40.64, 133.18 1.82 M87.39 66.69 C99.86 52.03, 111.54 39.65, 143.81 1.79 M87.39 66.69 C103.03 49.37, 116.29 32.34, 143.81 1.79 M98.02 66.66 C117.8 44, 136.9 20.9, 153.13 3.26 M98.02 66.66 C118.29 42.83, 138.22 20.31, 153.13 3.26 M108.65 66.62 C120.34 49.69, 134.79 34.51, 159.82 7.76 M108.65 66.62 C124.12 49.08, 138.82 30.71, 159.82 7.76 M119.28 66.59 C134.7 51.94, 148.03 36.61, 163.89 15.27 M119.28 66.59 C130.12 54.66, 139.78 42.67, 163.89 15.27 M129.25 67.31 C136.38 57.53, 145.92 49.56, 163.37 28.06 M129.25 67.31 C139.12 55.67, 149.71 43.93, 163.37 28.06 M139.88 67.27 C147.82 58.9, 151.5 51.6, 163.5 40.1 M139.88 67.27 C145.78 59.34, 151.17 53.32, 163.5 40.1 M4.15 59.25 C4.15 59.25, 4.15 59.25, 4.15 59.25 M4.15 59.25 C4.15 59.25, 4.15 59.25, 4.15 59.25 M13.17 56.49 C11.32 54.1, 6.75 51.43, 3.36 47.96 M13.17 56.49 C10.93 54.08, 8.73 52.42, 3.36 47.96 M25.97 57.01 C20.96 49.16, 12.36 46.4, 3.33 37.33 M25.97 57.01 C18.58 49.13, 9.11 42.38, 3.33 37.33 M38.01 56.88 C31.64 50.91, 24.44 45.54, 3.29 26.7 M38.01 56.88 C31.65 50.55, 23.54 43.93, 3.29 26.7 M50.05 56.75 C38 47.41, 24.85 35.22, 3.26 16.07 M50.05 56.75 C35.71 46.18, 24.21 34.68, 3.26 16.07 M62.84 57.27 C46.99 45.86, 34.6 29.52, 3.22 5.44 M62.84 57.27 C48.62 44.96, 32.97 30.85, 3.22 5.44 M74.88 57.14 C54.92 38.74, 35.27 22.12, 8.47 -0.6 M74.88 57.14 C51.71 36.62, 29.14 15.8, 8.47 -0.6 M86.93 57 C70.07 43.56, 56.22 29.94, 18.25 -2.7 M86.93 57 C72.15 42.51, 55.99 29.74, 18.25 -2.7 M99.72 57.52 C72.19 34.88, 46.39 13.18, 30.29 -2.83 M99.72 57.52 C76.71 38.54, 53.55 17.28, 30.29 -2.83 M111.76 57.39 C89.83 37.41, 69.24 17.3, 43.08 -2.31 M111.76 57.39 C96.79 46.08, 84.03 32.98, 43.08 -2.31 M123.8 57.26 C100.15 36.49, 80.7 19.99, 55.12 -2.44 M123.8 57.26 C107.57 43.68, 92.79 29.47, 55.12 -2.44 M136.6 57.78 C112.96 35.56, 89.51 15.52, 67.16 -2.58 M136.6 57.78 C117.64 40.68, 97.92 24.34, 67.16 -2.58 M148.64 57.65 C128.26 41.68, 110.66 25.72, 79.96 -2.05 M148.64 57.65 C133.99 44.06, 117.9 31.62, 79.96 -2.05 M158.42 55.55 C140.16 41.49, 125.79 23.99, 92 -2.19 M158.42 55.55 C133.05 32.87, 108.6 11.81, 92 -2.19 M163.66 49.51 C147.56 36.44, 132.96 25.64, 104.04 -2.32 M163.66 49.51 C145.52 33.21, 125.37 15.76, 104.04 -2.32 M163.63 38.88 C153.82 27.98, 144.64 21.05, 116.84 -1.8 M163.63 38.88 C144.92 23.06, 127.51 7.76, 116.84 -1.8 M163.6 28.25 C152.21 18.7, 137.56 6.37, 128.88 -1.93 M163.6 28.25 C149.95 16.99, 139.24 5.82, 128.88 -1.93 M163.56 17.62 C153.12 9.86, 145.05 2.25, 140.92 -2.06 M163.56 17.62 C157.18 13.1, 150.94 7.09, 140.92 -2.06" stroke="#ffec99" stroke-width="1" fill="none"></path><path d="M15.75 0 M15.75 0 C63.82 -0.31, 110.91 -0.45, 144.25 0 M15.75 0 C64.68 -1.01, 112.66 -0.35, 144.25 0 M144.25 0 C154.38 1.14, 158.18 6.31, 160 15.75 M144.25 0 C153.69 -1.14, 159.06 5.63, 160 15.75 M160 15.75 C160.11 22.04, 161.27 33.69, 160 47.25 M160 15.75 C160.04 23.15, 159.59 28.32, 160 47.25 M160 47.25 C161.03 57.49, 156.25 62.46, 144.25 63 M160 47.25 C161.83 58.14, 153.28 61.17, 144.25 63 M144.25 63 C108.73 63.55, 73.34 63.36, 15.75 63 M144.25 63 C115.42 61.63, 89.12 63.17, 15.75 63 M15.75 63 C4.68 61.45, -0.99 57.66, 0 47.25 M15.75 63 C5.63 63.65, 2.18 56.14, 0 47.25 M0 47.25 C-1.75 37.48, 1.2 24.35, 0 15.75 M0 47.25 C0.15 38.49, -0.74 29.75, 0 15.75 M0 15.75 C1.69 4.36, 3.78 0.55, 15.75 0 M0 15.75 C1.83 5.94, 4.05 -1.01, 15.75 0" stroke="#1e1e1e" stroke-width="2" fill="none"></path></g><g transform="translate(365.6893307909179 495.32131510116164) rotate(0 39.16666793823242 12.5)"><text x="0" y="0" font-family="Virgil, Segoe UI Emoji" font-size="20px" fill="#1e1e1e" text-anchor="start" style="white-space: pre;" direction="ltr" dominant-baseline="text-before-edge">NODE-3</text></g><g mask="url(#mask-qYifEiwZTQt25WeEKuaOy)" stroke-linecap="round"><g transform="translate(593.6893307909179 729.3213151011616) rotate(0 -1.7709676698140129 43.94340711534022)"><path d="M-0.08 -1.03 C-0.38 13.77, -1.87 74.16, -2.33 88.92 M-1.57 1.04 C-2.02 15.5, -3.64 72.69, -3.45 87.28" stroke="#1e1e1e" stroke-width="2" fill="none"></path></g><g transform="translate(593.6893307909179 729.3213151011616) rotate(0 -1.7709676698140129 43.94340711534022)"><path d="M-15.13 58.43 C-9.3 64.8, -9.08 71.65, -5.41 87.2 M-13.74 59.66 C-9.43 70.72, -5.83 81.8, -4.25 86.64" stroke="#1e1e1e" stroke-width="2" fill="none"></path></g><g transform="translate(593.6893307909179 729.3213151011616) rotate(0 -1.7709676698140129 43.94340711534022)"><path d="M5.39 58.65 C5.96 64.95, 0.93 71.74, -5.41 87.2 M6.78 59.87 C3.06 70.73, -1.37 81.73, -4.25 86.64" stroke="#1e1e1e" stroke-width="2" fill="none"></path></g></g><mask id="mask-qYifEiwZTQt25WeEKuaOy"><rect x="0" y="0" fill="#fff" width="695.6893307909179" height="917.3213151011616"></rect><rect x="570.6580807909179" y="763.3213151011616" fill="#000" width="44.0625" height="20" opacity="1"></rect></mask><g mask="url(#mask-ECwwRcobxOkEQcAfn-PJy)" stroke-linecap="round"><g transform="translate(674.6893307909179 725.3213151011616) rotate(0 -1.6067934249294922 42.98539100109599)"><path d="M-0.86 -0.48 C-1.49 13.84, -3.74 71.9, -4.1 86.83 M0.89 -1.78 C0.64 12.56, -1.18 72.9, -1.97 87.75" stroke="#1e1e1e" stroke-width="2" fill="none"></path></g><g transform="translate(674.6893307909179 725.3213151011616) rotate(0 -1.6067934249294922 42.98539100109599)"><path d="M-11.91 57.34 C-10.35 66.95, -4.08 73.58, -3.13 87.08 M-11.15 59.78 C-8.47 68.99, -4.03 80.68, -2.37 88.34" stroke="#1e1e1e" stroke-width="2" fill="none"></path></g><g transform="translate(674.6893307909179 725.3213151011616) rotate(0 -1.6067934249294922 42.98539100109599)"><path d="M8.6 58.15 C4.56 67.4, 5.25 73.8, -3.13 87.08 M9.36 60.59 C4.49 69.63, 1.39 81.02, -2.37 88.34" stroke="#1e1e1e" stroke-width="2" fill="none"></path></g></g><mask id="mask-ECwwRcobxOkEQcAfn-PJy"><rect x="0" y="0" fill="#fff" width="777.6893307909179" height="913.3213151011616"></rect><rect x="653.3872468218017" y="759.3213151011616" fill="#000" width="39.60416793823242" height="20" opacity="1"></rect></mask><g stroke-linecap="round"><g transform="translate(595.9517796937237 572.3213151011616) rotate(0 -0.010120646137352196 22.54997646271255)"><path d="M-0.04 1.1 C0 8.51, -0.74 36.01, -0.82 43.3 M-1.53 0.63 C-1 8.29, 1.49 37.43, 1.51 44.47" stroke="#1e1e1e" stroke-width="2" fill="none"></path></g><g transform="translate(595.9517796937237 572.3213151011616) rotate(0 -0.010120646137352196 22.54997646271255)"><path d="M-5.22 22.97 C-6.63 27.76, -2.33 33.16, 2.71 44.39 M-6.77 24.74 C-4.52 32.16, -1.1 39.33, 2.21 43.8" stroke="#1e1e1e" stroke-width="2" fill="none"></path></g><g transform="translate(595.9517796937237 572.3213151011616) rotate(0 -0.010120646137352196 22.54997646271255)"><path d="M9.81 22.21 C5.26 27.15, 6.44 32.71, 2.71 44.39 M8.26 23.99 C5.08 31.58, 3.09 39.02, 2.21 43.8" stroke="#1e1e1e" stroke-width="2" fill="none"></path></g></g><mask></mask><g stroke-linecap="round"><g transform="translate(544.6893307909179 668.3051336613844) rotate(0 -45.24288862033757 -0.6585015901917473)"><path d="M-0.74 -0.7 C-15.8 -1.08, -75.57 -1.08, -90.4 -1.17 M1.07 1.55 C-14.18 1.35, -76.33 -2.07, -91.56 -2.87" stroke="#1e1e1e" stroke-width="2" fill="none"></path></g><g transform="translate(544.6893307909179 668.3051336613844) rotate(0 -45.24288862033757 -0.6585015901917473)"><path d="M-64.03 -12.28 C-69.93 -8.69, -78.58 -6.69, -90.34 -4.46 M-63.26 -11.03 C-69.67 -8.94, -75.68 -8.01, -91.42 -2.44" stroke="#1e1e1e" stroke-width="2" fill="none"></path></g><g transform="translate(544.6893307909179 668.3051336613844) rotate(0 -45.24288862033757 -0.6585015901917473)"><path d="M-65.12 8.21 C-70.88 5.74, -79.21 1.67, -90.34 -4.46 M-64.35 9.47 C-70.56 6.71, -76.31 2.81, -91.42 -2.44" stroke="#1e1e1e" stroke-width="2" fill="none"></path></g></g><mask></mask><g stroke-linecap="round"><g transform="translate(600.8027450041493 263.6126036425877) rotate(1.2281279523862336 -68.44252960676795 19.54821527485933)" fill-rule="evenodd"><path d="M-136.39 19.24 C-136.39 19.24, -136.39 19.24, -136.39 19.24 M-136.39 19.24 C-136.39 19.24, -136.39 19.24, -136.39 19.24 M-128.36 23.37 C-125.94 16.24, -118.17 11.12, -108.33 1.8 M-130.28 23.49 C-122.31 14.15, -114.36 6.19, -110.28 1.96 M-123.17 28.65 C-107.73 13.98, -95.3 -2.89, -83.62 -17.69 M-122.01 28.17 C-109.5 11.17, -95.09 -3.43, -83.29 -16.31 M-118.15 31.54 C-104.17 16.85, -90.52 0.8, -73.7 -14.64 M-115.66 33.24 C-105.25 20.38, -93.32 5.69, -74.23 -14.8 M-111.46 37.94 C-103.74 26.48, -93.19 21.56, -78.13 1.21 M-110.05 37.69 C-101.52 26.73, -93.61 17.12, -78.71 1.66 M-102.99 41.26 C-90.86 28.09, -79.01 14.74, -66.37 0.45 M-104.49 42.31 C-91.97 29.41, -80.7 15.56, -67.32 1.06 M-98.11 45.92 C-83.76 33.36, -69.78 14.85, -59.21 1.02 M-96.98 47.33 C-83.28 29.61, -68.44 13.81, -57.34 1.44 M-90.23 50.59 C-89.27 48.66, -84.55 46.4, -80.19 40.07 M-90.7 51.68 C-86.87 48.04, -83.73 45.27, -80.36 39.23 M-80.81 38 C-67.56 24.39, -54.24 13, -47.8 1.28 M-79.02 38.47 C-71.59 31.6, -65.03 21.81, -46.95 1.82 M-83.71 55.59 C-82.44 53.95, -80.2 52.49, -80.15 51.2 M-83.44 56.02 C-81.98 54.16, -80.56 52.91, -79.84 51.49 M-69.62 38.79 C-61.91 27.71, -50.15 18.14, -35.45 2.8 M-68.38 39.34 C-61.62 29.97, -54.34 22.14, -35.55 2.57 M-56.94 37.63 C-49.46 28.78, -39.08 18.68, -24.18 0.58 M-57.95 39.34 C-49.34 28.79, -42.45 19.66, -25.68 0.99 M-46.66 40.7 C-39.3 32.59, -33.31 24.38, -13.97 2.67 M-46.94 39.58 C-38.29 27.29, -28.82 16.49, -15.01 1.31 M-36.1 40.81 C-25.76 25.27, -14.51 12.82, -3.3 2.76 M-37.97 39.01 C-31.12 30.23, -23.82 23.1, -4.97 1.39 M-26.11 40 C-13.36 24.69, -2.77 12.05, 5.38 4.55 M-26.27 38.33 C-21.23 31.43, -12.63 23.55, 3.68 3.87 M-15.54 40.1 C-7.41 32.39, -3.85 21.67, 4.51 15.3 M-16.44 38.7 C-9.65 33.25, -4.76 26.43, 3.49 15.91 M-4.14 37.67 C-3.25 36.12, 0.5 31.94, 3.09 29.2 M-5.21 38.7 C-2.16 35.65, 0.12 31.64, 5.05 27.43" stroke="#b2f2bb" stroke-width="1" fill="none"></path><path d="M-0.8 -0.61 C0.32 15.5, -1.13 27.89, -1.68 38.34 M-0.73 -0.73 C-0.58 8.15, -0.87 16.85, 0.94 37.72 M-1.17 38.8 C-27.93 36.88, -59.85 39.77, -80.82 39.12 M0.56 37.89 C-27.1 37.75, -53.81 38.06, -81.28 38.53 M-79.71 40.08 C-82.38 44.73, -79.57 52.29, -78.89 59.16 M-79.55 38.09 C-79.92 43.89, -79.9 48.19, -79.54 57.91 M-80.97 58.75 C-95.13 48.27, -110.09 36.06, -137.83 18.89 M-79.81 57.5 C-95.3 46.21, -111.49 36.62, -137.22 20.01 M-137.52 19.29 C-116.3 5.26, -93.7 -11.39, -80.6 -19.84 M-135.6 19.15 C-114.49 4.38, -93.08 -11.37, -81.44 -19.07 M-78.58 -19.84 C-81.75 -13.1, -79.7 -8.19, -81.26 -1.65 M-79.76 -20.07 C-80.64 -13.38, -80.67 -6.49, -79.65 0.49 M-80.43 0.93 C-61.94 -0.27, -46.89 1.87, 0.32 1.35 M-79.47 0.43 C-62.15 0.49, -44.09 -0.67, -0.24 0.11 M0 0 C0 0, 0 0, 0 0 M0 0 C0 0, 0 0, 0 0" stroke="#2f9e44" stroke-width="2" fill="none"></path></g></g><mask></mask><g transform="translate(492.43037504383415 262.8436826474164) rotate(1.2281279523862336 44.3191131830597 19.065781080018894)"><text x="0" y="0" font-family="Virgil, Segoe UI Emoji" font-size="30.50524972803021px" fill="#2f9e44" text-anchor="start" style="white-space: pre;" direction="ltr" dominant-baseline="text-before-edge">Trust</text></g><g transform="translate(283.5833320617678 264.5) rotate(0 44.91666793823242 17.5)"><text x="44.91666793823242" y="0" font-family="Virgil, Segoe UI Emoji" font-size="28px" fill="#1e1e1e" text-anchor="middle" style="white-space: pre;" direction="ltr" dominant-baseline="text-before-edge">hermes</text></g><g transform="translate(190.60416793823265 134) rotate(0 42.39583206176758 17.5)"><text x="42.39583206176758" y="0" font-family="Virgil, Segoe UI Emoji" font-size="28px" fill="#1e1e1e" text-anchor="middle" style="white-space: pre;" direction="ltr" dominant-baseline="text-before-edge">rippled</text></g><g transform="translate(263.9687500000002 375) rotate(0 22.075697574019387 9.928845492005365)"><text x="22.03125" y="0" font-family="Virgil, Segoe UI Emoji" font-size="16px" fill="#1e1e1e" text-anchor="middle" style="white-space: pre;" direction="ltr" dominant-baseline="text-before-edge">REST</text></g><g transform="translate(346.697916030884 371) rotate(0 19.591244413525715 9.683265692731368)"><text x="19.80208396911621" y="0" font-family="Virgil, Segoe UI Emoji" font-size="16px" fill="#1e1e1e" text-anchor="middle" style="white-space: pre;" direction="ltr" dominant-baseline="text-before-edge">gRPC</text></g><g transform="translate(862.2726628526855 264.8213151011616) rotate(0 44.91666793823242 17.5)"><text x="44.91666793823242" y="0" font-family="Virgil, Segoe UI Emoji" font-size="28px" fill="#1e1e1e" text-anchor="middle" style="white-space: pre;" direction="ltr" dominant-baseline="text-before-edge">hermes</text></g><g transform="translate(769.2934987291503 134.3213151011616) rotate(0 42.39583206176758 17.5)"><text x="42.39583206176758" y="0" font-family="Virgil, Segoe UI Emoji" font-size="28px" fill="#1e1e1e" text-anchor="middle" style="white-space: pre;" direction="ltr" dominant-baseline="text-before-edge">rippled</text></g><g transform="translate(842.6580807909179 375.3213151011616) rotate(0 21.782688529053758 9.971885310928343)"><text x="22.03125" y="0" font-family="Virgil, Segoe UI Emoji" font-size="16px" fill="#1e1e1e" text-anchor="middle" style="white-space: pre;" direction="ltr" dominant-baseline="text-before-edge">REST</text></g><g transform="translate(925.3872468218017 371.3213151011616) rotate(0 19.818767765765074 9.595237275948733)"><text x="19.80208396911621" y="0" font-family="Virgil, Segoe UI Emoji" font-size="16px" fill="#1e1e1e" text-anchor="middle" style="white-space: pre;" direction="ltr" dominant-baseline="text-before-edge">gRPC</text></g><g transform="translate(590.2726628526855 652.8213151011616) rotate(0 44.91666793823242 17.5)"><text x="44.91666793823242" y="0" font-family="Virgil, Segoe UI Emoji" font-size="28px" fill="#1e1e1e" text-anchor="middle" style="white-space: pre;" direction="ltr" dominant-baseline="text-before-edge">hermes</text></g><g transform="translate(497.2934987291503 522.3213151011616) rotate(0 42.39583206176758 17.5)"><text x="42.39583206176758" y="0" font-family="Virgil, Segoe UI Emoji" font-size="28px" fill="#1e1e1e" text-anchor="middle" style="white-space: pre;" direction="ltr" dominant-baseline="text-before-edge">rippled</text></g><g transform="translate(570.6580807909179 763.3213151011616) rotate(0 21.260282330185987 9.943407115340221)"><text x="22.03125" y="0" font-family="Virgil, Segoe UI Emoji" font-size="16px" fill="#1e1e1e" text-anchor="middle" style="white-space: pre;" direction="ltr" dominant-baseline="text-before-edge">REST</text></g><g transform="translate(653.3872468218017 759.3213151011616) rotate(0 19.69529054418672 8.98539100109599)"><text x="19.80208396911621" y="0" font-family="Virgil, Segoe UI Emoji" font-size="16px" fill="#1e1e1e" text-anchor="middle" style="white-space: pre;" direction="ltr" dominant-baseline="text-before-edge">gRPC</text></g></svg>